<?xml version="1.0" encoding="UTF-8"?>
<!DOCTYPE svg PUBLIC "-//W3C//DTD SVG 1.1//EN" "http://www.w3.org/Graphics/SVG/1.1/DTD/svg11.dtd">
<svg xmlns="http://www.w3.org/2000/svg" version="1.1" width="629px" height="529px" style="shape-rendering:geometricPrecision; text-rendering:geometricPrecision; image-rendering:optimizeQuality; fill-rule:evenodd; clip-rule:evenodd" xmlns:xlink="http://www.w3.org/1999/xlink">
<g><path style="opacity:1" fill="#b11628" d="M 3.5,2.5 C 78.5007,2.33334 153.501,2.5 228.5,3C 229.66,24.4271 229.826,45.9271 229,67.5C 153.903,68.6647 78.7368,68.8314 3.5,68C 2.17187,46.1667 2.17187,24.3334 3.5,2.5 Z"/></g>
<g><path style="opacity:1" fill="#86b3f9" d="M 240.5,2.5 C 289.168,2.33334 337.834,2.50001 386.5,3C 387.66,24.4271 387.826,45.9271 387,67.5C 338.237,68.6637 289.404,68.8303 240.5,68C 239.172,46.1667 239.172,24.3334 240.5,2.5 Z"/></g>
<g><path style="opacity:1" fill="#dbb000" d="M 398.5,2.5 C 473.501,2.33334 548.501,2.5 623.5,3C 624.66,24.4271 624.826,45.9271 624,67.5C 548.903,68.6647 473.737,68.8314 398.5,68C 397.172,46.1667 397.172,24.3334 398.5,2.5 Z"/></g>
<g><path style="opacity:1" fill="#2f3c51" d="M 268.5,10.5 C 266.092,11.0613 263.759,11.5613 261.5,12C 262.725,10.437 264.225,9.27032 266,8.5C 267.301,8.63874 268.134,9.30541 268.5,10.5 Z"/></g>
<g><path style="opacity:1" fill="#2e3a4e" d="M 287.5,10.5 C 285.508,10.3285 283.842,10.9951 282.5,12.5C 281.641,10.4609 282.474,9.12752 285,8.5C 286.301,8.63874 287.134,9.30541 287.5,10.5 Z"/></g>
<g><path style="opacity:1" fill="#2a3648" d="M 302.5,8.5 C 305.864,7.87279 307.864,9.20613 308.5,12.5C 307.233,14.9435 305.733,17.2769 304,19.5C 304.952,16.6418 305.785,13.6418 306.5,10.5C 304.278,10.178 302.444,10.8446 301,12.5C 300.7,10.9343 301.2,9.60101 302.5,8.5 Z"/></g>
<g><path style="opacity:1" fill="#2a3648" d="M 321.5,8.5 C 324.864,7.87279 326.864,9.20613 327.5,12.5C 326.233,14.9435 324.733,17.2769 323,19.5C 323.952,16.6418 324.785,13.6418 325.5,10.5C 323.278,10.178 321.444,10.8446 320,12.5C 319.7,10.9343 320.2,9.60101 321.5,8.5 Z"/></g>
<g><path style="opacity:1" fill="#2e3a4e" d="M 354.5,10.5 C 352.508,10.3285 350.842,10.9951 349.5,12.5C 348.641,10.4609 349.474,9.12752 352,8.5C 353.301,8.63874 354.134,9.30541 354.5,10.5 Z"/></g>
<g><path style="opacity:1" fill="#273242" d="M 268.5,10.5 C 269.613,11.9464 269.78,13.6131 269,15.5C 267.493,16.5046 266.327,17.838 265.5,19.5C 264.169,16.9509 265.002,15.2842 268,14.5C 268.49,13.2068 268.657,11.8734 268.5,10.5 Z"/></g>
<g><path style="opacity:1" fill="#2c384c" d="M 273.5,8.5 C 276.588,8.36697 278.588,9.7003 279.5,12.5C 278.233,14.9435 276.733,17.2769 275,19.5C 275.952,16.6418 276.785,13.6418 277.5,10.5C 275.508,10.3285 273.842,10.9951 272.5,12.5C 272.167,12.1667 271.833,11.8333 271.5,11.5C 272.193,10.4822 272.859,9.48224 273.5,8.5 Z"/></g>
<g><path style="opacity:1" fill="#273242" d="M 287.5,10.5 C 288.613,11.9464 288.78,13.6131 288,15.5C 286.493,16.5046 285.327,17.838 284.5,19.5C 283.169,16.9509 284.002,15.2842 287,14.5C 287.49,13.2068 287.657,11.8734 287.5,10.5 Z"/></g>
<g><path style="opacity:1" fill="#2c384c" d="M 292.5,8.5 C 295.588,8.36697 297.588,9.7003 298.5,12.5C 297.233,14.9435 295.733,17.2769 294,19.5C 294.952,16.6418 295.785,13.6418 296.5,10.5C 294.508,10.3285 292.842,10.9951 291.5,12.5C 291.167,12.1667 290.833,11.8333 290.5,11.5C 291.193,10.4822 291.859,9.48224 292.5,8.5 Z"/></g>
<g><path style="opacity:1" fill="#2c384c" d="M 340.5,8.5 C 343.588,8.36697 345.588,9.7003 346.5,12.5C 345.233,14.9435 343.733,17.2769 342,19.5C 342.952,16.6418 343.785,13.6418 344.5,10.5C 342.508,10.3285 340.842,10.9951 339.5,12.5C 339.167,12.1667 338.833,11.8333 338.5,11.5C 339.193,10.4822 339.859,9.48224 340.5,8.5 Z"/></g>
<g><path style="opacity:1" fill="#273242" d="M 354.5,10.5 C 355.613,11.9464 355.78,13.6131 355,15.5C 353.493,16.5046 352.327,17.838 351.5,19.5C 350.169,16.9509 351.002,15.2842 354,14.5C 354.49,13.2068 354.657,11.8734 354.5,10.5 Z"/></g>
<g><path style="opacity:1" fill="#2c384c" d="M 359.5,8.5 C 362.588,8.36697 364.588,9.7003 365.5,12.5C 364.233,14.9435 362.733,17.2769 361,19.5C 361.952,16.6418 362.785,13.6418 363.5,10.5C 361.508,10.3285 359.842,10.9951 358.5,12.5C 358.167,12.1667 357.833,11.8333 357.5,11.5C 358.193,10.4822 358.859,9.48224 359.5,8.5 Z"/></g>
<g><path style="opacity:1" fill="#293446" d="M 312.5,8.5 C 315.585,8.41798 317.252,9.91798 317.5,13C 316.008,15.0089 314.674,17.1755 313.5,19.5C 312.417,18.635 312.251,17.635 313,16.5C 314.298,15.4404 315.465,14.2737 316.5,13C 314.884,9.93984 312.884,9.77318 310.5,12.5C 310.167,12.1667 309.833,11.8333 309.5,11.5C 310.34,10.265 311.34,9.26501 312.5,8.5 Z"/></g>
<g><path style="opacity:1" fill="#293446" d="M 331.5,8.5 C 334.585,8.41798 336.252,9.91798 336.5,13C 335.008,15.0089 333.674,17.1755 332.5,19.5C 331.417,18.635 331.251,17.635 332,16.5C 333.298,15.4404 334.465,14.2737 335.5,13C 333.884,9.93984 331.884,9.77318 329.5,12.5C 329.167,12.1667 328.833,11.8333 328.5,11.5C 329.34,10.265 330.34,9.26501 331.5,8.5 Z"/></g>
<g><path style="opacity:1" fill="#610f19" d="M 141.5,18.5 C 141.56,17.9569 141.893,17.6236 142.5,17.5C 143.814,22.6523 143.814,27.6523 142.5,32.5C 142.819,27.6367 142.486,22.97 141.5,18.5 Z"/></g>
<g><path style="opacity:1" fill="#79620d" d="M 494.5,17.5 C 495.5,17.5 496.5,17.5 497.5,17.5C 497.5,21.1667 497.5,24.8333 497.5,28.5C 496.5,28.5 495.5,28.5 494.5,28.5C 494.5,24.8333 494.5,21.1667 494.5,17.5 Z"/></g>
<g><path style="opacity:1" fill="#79620d" d="M 499.5,17.5 C 500.5,17.5 501.5,17.5 502.5,17.5C 502.5,21.1667 502.5,24.8333 502.5,28.5C 501.5,28.5 500.5,28.5 499.5,28.5C 499.5,24.8333 499.5,21.1667 499.5,17.5 Z"/></g>
<g><path style="opacity:1" fill="#79620d" d="M 504.5,17.5 C 505.5,17.5 506.5,17.5 507.5,17.5C 507.5,21.1667 507.5,24.8333 507.5,28.5C 506.5,28.5 505.5,28.5 504.5,28.5C 504.5,24.8333 504.5,21.1667 504.5,17.5 Z"/></g>
<g><path style="opacity:1" fill="#624f07" d="M 510.5,17.5 C 511.787,18.8714 512.453,20.7047 512.5,23C 512.167,24.8333 511.833,26.6667 511.5,28.5C 510.511,24.8927 510.177,21.226 510.5,17.5 Z"/></g>
<g><path style="opacity:1" fill="#624f07" d="M 515.5,17.5 C 516.787,18.8714 517.453,20.7047 517.5,23C 517.167,24.8333 516.833,26.6667 516.5,28.5C 515.511,24.8927 515.177,21.226 515.5,17.5 Z"/></g>
<g><path style="opacity:1" fill="#624f07" d="M 520.5,17.5 C 521.787,18.8714 522.453,20.7047 522.5,23C 522.167,24.8333 521.833,26.6667 521.5,28.5C 520.511,24.8927 520.177,21.226 520.5,17.5 Z"/></g>
<g><path style="opacity:1" fill="#504206" d="M 525.5,17.5 C 526.787,18.8714 527.453,20.7047 527.5,23C 527.167,24.8333 526.833,26.6667 526.5,28.5C 525.511,24.8927 525.177,21.226 525.5,17.5 Z"/></g>
<g><path style="opacity:1" fill="#504206" d="M 530.5,17.5 C 531.787,18.8714 532.453,20.7047 532.5,23C 532.167,24.8333 531.833,26.6667 531.5,28.5C 530.511,24.8927 530.177,21.226 530.5,17.5 Z"/></g>
<g><path style="opacity:1" fill="#2f0e10" d="M 91.5,17.5 C 94.5993,17.0923 96.9326,18.259 98.5,21C 96.0984,19.9544 93.4317,19.4544 90.5,19.5C 90.3433,20.8734 90.51,22.2068 91,23.5C 93.1748,24.2546 95.3415,25.088 97.5,26C 98.9348,28.2672 98.6015,30.2672 96.5,32C 94.1009,32.711 91.7676,32.5443 89.5,31.5C 88.2853,27.7207 88.9519,27.554 91.5,31C 95.4918,32.1772 97.1584,30.6772 96.5,26.5C 91.1003,26.9292 88.6003,24.5959 89,19.5C 89.9947,18.9341 90.828,18.2674 91.5,17.5 Z"/></g>
<g><path style="opacity:1" fill="#280c0e" d="M 141.5,18.5 C 142.486,22.97 142.819,27.6367 142.5,32.5C 141.834,28.6475 141.167,24.6475 140.5,20.5C 136.899,20.9819 137.232,20.3153 141.5,18.5 Z"/></g>
<g><path style="opacity:1" fill="#400e13" d="M 111.5,21.5 C 113.153,22.6045 114.82,22.7712 116.5,22C 115.975,22.6924 115.308,23.1924 114.5,23.5C 113.833,26.5 113.167,29.5 112.5,32.5C 111.511,28.8927 111.177,25.226 111.5,21.5 Z"/></g>
<g><path style="opacity:1" fill="#232c3b" d="M 264.5,21.5 C 266.337,21.6395 266.67,22.3061 265.5,23.5C 264.702,23.0431 264.369,22.3764 264.5,21.5 Z"/></g>
<g><path style="opacity:1" fill="#232c3b" d="M 283.5,21.5 C 285.337,21.6395 285.67,22.3061 284.5,23.5C 283.702,23.0431 283.369,22.3764 283.5,21.5 Z"/></g>
<g><path style="opacity:1" fill="#283345" d="M 312.5,21.5 C 314.337,21.6395 314.67,22.3061 313.5,23.5C 312.702,23.0431 312.369,22.3764 312.5,21.5 Z"/></g>
<g><path style="opacity:1" fill="#283345" d="M 331.5,21.5 C 333.337,21.6395 333.67,22.3061 332.5,23.5C 331.702,23.0431 331.369,22.3764 331.5,21.5 Z"/></g>
<g><path style="opacity:1" fill="#232c3b" d="M 350.5,21.5 C 352.337,21.6395 352.67,22.3061 351.5,23.5C 350.702,23.0431 350.369,22.3764 350.5,21.5 Z"/></g>
<g><path style="opacity:1" fill="#260e0e" d="M 106.5,22.5 C 109.084,23.0483 110.084,24.715 109.5,27.5C 106.753,27.1866 104.086,27.52 101.5,28.5C 103.384,32.0172 105.717,32.3506 108.5,29.5C 109.604,30.6313 109.271,31.4646 107.5,32C 100.999,32.8123 98.8319,29.979 101,23.5C 102.678,21.4468 104.511,21.1134 106.5,22.5 Z"/></g>
<g><path style="opacity:1" fill="#991423" d="M 106.5,22.5 C 107.234,23.7079 107.567,25.0413 107.5,26.5C 105.396,26.7989 103.396,26.4656 101.5,25.5C 102.421,23.244 104.088,22.244 106.5,22.5 Z"/></g>
<g><path style="opacity:1" fill="#481215" d="M 129.5,25.5 C 131.604,25.2011 133.604,25.5344 135.5,26.5C 134.5,26.8333 133.5,27.1667 132.5,27.5C 130.97,27.3601 129.97,26.6935 129.5,25.5 Z"/></g>
<g><path style="opacity:1" fill="#3b0f12" d="M 118.5,21.5 C 119.497,21.4701 120.164,21.9701 120.5,23C 121.137,25.245 121.97,27.4117 123,29.5C 124.072,26.7821 125.238,24.1155 126.5,21.5C 124.445,35.842 121.778,35.842 118.5,21.5 Z"/></g>
<g><path style="opacity:1" fill="#31280b" d="M 479.5,30.5 C 481.337,30.6395 481.67,31.3061 480.5,32.5C 479.702,32.0431 479.369,31.3764 479.5,30.5 Z"/></g>
<g><path style="opacity:1" fill="#31280b" d="M 484.5,30.5 C 486.337,30.6395 486.67,31.3061 485.5,32.5C 484.702,32.0431 484.369,31.3764 484.5,30.5 Z"/></g>
<g><path style="opacity:1" fill="#31280b" d="M 489.5,30.5 C 491.337,30.6395 491.67,31.3061 490.5,32.5C 489.702,32.0431 489.369,31.3764 489.5,30.5 Z"/></g>
<g><path style="opacity:1" fill="#50410c" d="M 495.5,30.5 C 497.337,30.6395 497.67,31.3061 496.5,32.5C 495.702,32.0431 495.369,31.3764 495.5,30.5 Z"/></g>
<g><path style="opacity:1" fill="#50410c" d="M 500.5,30.5 C 502.337,30.6395 502.67,31.3061 501.5,32.5C 500.702,32.0431 500.369,31.3764 500.5,30.5 Z"/></g>
<g><path style="opacity:1" fill="#50410c" d="M 505.5,30.5 C 507.337,30.6395 507.67,31.3061 506.5,32.5C 505.702,32.0431 505.369,31.3764 505.5,30.5 Z"/></g>
<g><path style="opacity:1" fill="#453809" d="M 510.5,30.5 C 512.337,30.6395 512.67,31.3061 511.5,32.5C 510.702,32.0431 510.369,31.3764 510.5,30.5 Z"/></g>
<g><path style="opacity:1" fill="#453809" d="M 515.5,30.5 C 517.337,30.6395 517.67,31.3061 516.5,32.5C 515.702,32.0431 515.369,31.3764 515.5,30.5 Z"/></g>
<g><path style="opacity:1" fill="#453809" d="M 520.5,30.5 C 522.337,30.6395 522.67,31.3061 521.5,32.5C 520.702,32.0431 520.369,31.3764 520.5,30.5 Z"/></g>
<g><path style="opacity:1" fill="#342b08" d="M 525.5,30.5 C 527.337,30.6395 527.67,31.3061 526.5,32.5C 525.702,32.0431 525.369,31.3764 525.5,30.5 Z"/></g>
<g><path style="opacity:1" fill="#342b08" d="M 530.5,30.5 C 532.337,30.6395 532.67,31.3061 531.5,32.5C 530.702,32.0431 530.369,31.3764 530.5,30.5 Z"/></g>
<g><path style="opacity:1" fill="#31280b" d="M 535.5,30.5 C 537.337,30.6395 537.67,31.3061 536.5,32.5C 535.702,32.0431 535.369,31.3764 535.5,30.5 Z"/></g>
<g><path style="opacity:1" fill="#31280b" d="M 540.5,30.5 C 542.337,30.6395 542.67,31.3061 541.5,32.5C 540.702,32.0431 540.369,31.3764 540.5,30.5 Z"/></g>
<g><path style="opacity:1" fill="#2a3648" d="M 300.5,34.5 C 306.167,34.6636 306.5,34.9969 301.5,35.5C 301.5,36.5 301.5,37.5 301.5,38.5C 306.833,38.8333 306.833,39.1667 301.5,39.5C 301.5,40.5 301.5,41.5 301.5,42.5C 306.5,43.0031 306.167,43.3364 300.5,43.5C 300.5,40.5 300.5,37.5 300.5,34.5 Z"/></g>
<g><path style="opacity:1" fill="#5a77a4" d="M 323.5,36.5 C 324.873,36.3433 326.207,36.51 327.5,37C 326.072,38.9162 325.072,41.0829 324.5,43.5C 323.526,41.2573 323.192,38.924 323.5,36.5 Z"/></g>
<g><path style="opacity:1" fill="#6587ba" d="M 307.5,36.5 C 311.62,36.749 315.62,36.749 319.5,36.5C 322.144,37.741 322.977,39.741 322,42.5C 318.097,44.1376 315.597,42.8042 314.5,38.5C 313.167,45.1667 311.833,45.1667 310.5,38.5C 309.833,40.1667 309.167,41.8333 308.5,43.5C 307.526,41.2573 307.192,38.924 307.5,36.5 Z"/></g>
<g><path style="opacity:1" fill="#5a0f18" d="M 144.5,44.5 C 146.527,44.3379 148.527,44.5045 150.5,45C 149.207,45.49 147.873,45.6567 146.5,45.5C 146.5,46.5 146.5,47.5 146.5,48.5C 150.5,48.8333 150.5,49.1667 146.5,49.5C 146.762,50.9778 146.429,52.3112 145.5,53.5C 144.516,50.5719 144.183,47.5719 144.5,44.5 Z"/></g>
<g><path style="opacity:1" fill="#5e1018" d="M 128.5,44.5 C 130.141,46.2029 131.141,48.3695 131.5,51C 130.874,51.7504 130.374,52.5838 130,53.5C 128.796,52.1414 127.296,51.1414 125.5,50.5C 126.559,48.4664 127.559,46.4664 128.5,44.5 Z"/></g>
<g><path style="opacity:1" fill="#796204" d="M 488.5,45.5 C 490.686,45.5106 491.519,46.5106 491,48.5C 490,47.1667 489,47.1667 488,48.5C 487.53,47.4232 487.697,46.4232 488.5,45.5 Z"/></g>
<g><path style="opacity:1" fill="#7c121e" d="M 25.5,46.5 C 27.3904,46.2965 28.8904,46.9632 30,48.5C 30.6739,47.4216 31.6739,46.7549 33,46.5C 35.1172,47.3774 37.2839,47.5441 39.5,47C 40.7691,49.1385 40.7691,51.3052 39.5,53.5C 38.052,46.9216 36.8854,46.9216 36,53.5C 34.7493,45.5672 33.2493,45.5672 31.5,53.5C 29.259,53.5018 26.9257,53.1684 24.5,52.5C 23.15,50.2174 23.4833,48.2174 25.5,46.5 Z"/></g>
<g><path style="opacity:1" fill="#550e16" d="M 64.5,47.5 C 65.8076,54.1054 67.3076,54.1054 69,47.5C 69.4955,49.4727 69.6621,51.4727 69.5,53.5C 67.8333,53.5 66.1667,53.5 64.5,53.5C 64.5,51.5 64.5,49.5 64.5,47.5 Z"/></g>
<g><path style="opacity:1" fill="#886e05" d="M 523.5,45.5 C 525.265,44.5386 527.265,44.2053 529.5,44.5C 529.753,46.8273 529.086,48.8273 527.5,50.5C 526.653,48.939 526.986,47.439 528.5,46C 526.866,45.5065 525.199,45.3398 523.5,45.5 Z"/></g>
<g><path style="opacity:1" fill="#5b0f18" d="M 88.5,45.5 C 89.9187,44.5489 91.5853,44.2155 93.5,44.5C 92.9916,47.8515 91.6582,50.8515 89.5,53.5C 89.6207,51.0232 90.6207,48.5232 92.5,46C 91.2068,45.51 89.8734,45.3433 88.5,45.5 Z"/></g>
<g><path style="opacity:1" fill="#4e1216" d="M 122.5,45.5 C 123.969,48.1024 123.302,50.269 120.5,52C 123.937,52.6493 124.104,53.1493 121,53.5C 120.167,53.1667 119.333,52.8333 118.5,52.5C 120.734,50.6187 122.067,48.2853 122.5,45.5 Z"/></g>
<g><path style="opacity:1" fill="#540e17" d="M 159.5,45.5 C 160.289,45.7828 160.956,46.2828 161.5,47C 160.68,49.3332 160.347,51.4999 160.5,53.5C 159.085,50.8156 158.752,48.1489 159.5,45.5 Z"/></g>
<g><path style="opacity:1" fill="#7b121e" d="M 176.5,45.5 C 178.042,46.3007 179.708,46.634 181.5,46.5C 181.724,48.7867 182.391,50.9534 183.5,53C 183.07,54.4341 182.236,55.6008 181,56.5C 181.305,54.5568 181.305,52.5568 181,50.5C 180.692,49.6919 180.192,49.0253 179.5,48.5C 178.833,50.1667 178.167,51.8333 177.5,53.5C 176.52,50.9135 176.187,48.2469 176.5,45.5 Z"/></g>
<g><path style="opacity:1" fill="#5b0f18" d="M 13.5,44.5 C 15.4741,46.428 16.9741,48.7613 18,51.5C 18.8854,49 20.0521,46.6667 21.5,44.5C 22.8333,47.5 22.8333,50.5 21.5,53.5C 20.7492,52.624 20.2492,51.624 20,50.5C 19.7508,51.624 19.2508,52.624 18.5,53.5C 16.8539,52.2214 15.6872,50.5547 15,48.5C 14.6667,50.1667 14.3333,51.8333 14,53.5C 13.502,50.5184 13.3354,47.5184 13.5,44.5 Z"/></g>
<g><path style="opacity:1" fill="#600f18" d="M 53.5,46.5 C 54.9663,47.347 55.7996,48.6803 56,50.5C 56.9147,49.6721 57.5814,48.6721 58,47.5C 58.0786,50.3697 57.2453,53.0363 55.5,55.5C 55.3746,52.6896 54.7079,49.6896 53.5,46.5 Z"/></g>
<g><path style="opacity:1" fill="#66111a" d="M 112.5,44.5 C 116.161,44.3501 117.161,45.8501 115.5,49C 114.552,49.4828 113.552,49.6495 112.5,49.5C 112.5,50.5 112.5,51.5 112.5,52.5C 113.552,52.3505 114.552,52.5172 115.5,53C 113.888,53.7203 112.388,53.5536 111,52.5C 110.855,49.7393 111.355,47.0726 112.5,44.5 Z"/></g>
<g><path style="opacity:1" fill="#766004" d="M 507.5,45.5 C 509.364,44.2072 511.364,44.2072 513.5,45.5C 512.253,48.3286 510.753,50.9952 509,53.5C 509.203,51.0627 510.037,48.7293 511.5,46.5C 510.311,45.5713 508.978,45.238 507.5,45.5 Z"/></g>
<g><path style="opacity:1" fill="#876d05" d="M 518.5,44.5 C 520.635,44.147 521.968,44.9803 522.5,47C 522.026,48.7043 521.859,50.5377 522,52.5C 519.52,54.0897 517.687,53.5897 516.5,51C 517.833,49.6667 517.833,48.3333 516.5,47C 517.056,45.9889 517.722,45.1556 518.5,44.5 Z"/></g>
<g><path style="opacity:1" fill="#9b7e05" d="M 535.5,52.5 C 532.683,53.9171 531.017,52.9171 530.5,49.5C 531.349,44.2735 533.849,43.2735 538,46.5C 539.133,44.7888 540.633,44.2888 542.5,45C 546.388,52.9496 544.055,55.4496 535.5,52.5 Z"/></g>
<g><path style="opacity:1" fill="#d4ab00" d="M 535.5,52.5 C 534.5,52.5 533.5,52.5 532.5,52.5C 533.5,47.1667 534.5,47.1667 535.5,52.5 Z"/></g>
<g><path style="opacity:1" fill="#71111c" d="M 138.5,44.5 C 139.139,45.0968 139.472,45.9302 139.5,47C 138.815,49.5402 137.981,52.0402 137,54.5C 136.786,51.0664 137.286,47.7331 138.5,44.5 Z"/></g>
<g><path style="opacity:1" fill="#73121c" d="M 43.5,46.5 C 47.1838,47.372 48.1838,49.5386 46.5,53C 41.1483,53.1754 40.1483,51.0087 43.5,46.5 Z"/></g>
<g><path style="opacity:1" fill="#78121d" d="M 164.5,46.5 C 165.583,46.5394 166.583,46.8728 167.5,47.5C 168.466,49.396 168.799,51.396 168.5,53.5C 162.245,53.991 160.912,51.6577 164.5,46.5 Z"/></g>
<g><path style="opacity:1" fill="#510e16" d="M 210.5,48.5 C 210.56,47.9569 210.893,47.6236 211.5,47.5C 212.386,48.325 212.719,49.325 212.5,50.5C 206.49,50.2245 206.157,51.0579 211.5,53C 207.333,54.1667 205.833,52.6667 207,48.5C 209.027,49.8136 210.193,49.8136 210.5,48.5 Z"/></g>
<g><path style="opacity:1" fill="#5d1018" d="M 155.5,47.5 C 156.461,49.2646 156.795,51.2646 156.5,53.5C 154.833,53.5 153.167,53.5 151.5,53.5C 151.351,52.448 151.517,51.448 152,50.5C 153.729,50.0257 154.895,49.0257 155.5,47.5 Z"/></g>
<g><path style="opacity:1" fill="#715b06" d="M 504.5,49.5 C 506.225,49.8425 506.725,50.8425 506,52.5C 504.612,53.5536 503.112,53.7203 501.5,53C 502.448,52.5172 503.448,52.3505 504.5,52.5C 504.5,51.5 504.5,50.5 504.5,49.5 Z"/></g>
<g><path style="opacity:1" fill="#3c4f6c" d="M 358.5,53.5 C 359.765,54.5145 360.431,56.0145 360.5,58C 360.333,59.5 360.167,61 360,62.5C 359.971,59.6335 359.138,57.1335 357.5,55C 358.056,54.6174 358.389,54.1174 358.5,53.5 Z"/></g>
<g><path style="opacity:1" fill="#5a77a4" d="M 305.5,55.5 C 306.873,55.3433 308.207,55.51 309.5,56C 308.072,57.9162 307.072,60.0829 306.5,62.5C 305.526,60.2573 305.192,57.924 305.5,55.5 Z"/></g>
<g><path style="opacity:1" fill="#55719c" d="M 319.5,56.5 C 318.815,58.4144 318.315,60.4144 318,62.5C 317.115,55.9216 315.948,55.9216 314.5,62.5C 313.526,60.2573 313.192,57.924 313.5,55.5C 315.565,55.5172 317.565,55.8505 319.5,56.5 Z"/></g>
<g><path style="opacity:1" fill="#6384b6" d="M 332.5,54.5 C 334.823,55.0584 337.157,55.7251 339.5,56.5C 337.896,58.1789 337.229,60.1789 337.5,62.5C 335.833,62.5 334.167,62.5 332.5,62.5C 332.043,59.6907 332.043,57.024 332.5,54.5 Z"/></g>
<g><path style="opacity:1" fill="#5977a3" d="M 287.5,54.5 C 288.643,54.9081 289.643,55.5748 290.5,56.5C 289.656,58.6934 289.323,60.6934 289.5,62.5C 288.914,62.2907 288.414,61.9574 288,61.5C 287.503,59.1902 287.337,56.8568 287.5,54.5 Z"/></g>
<g><path style="opacity:1" fill="#54709a" d="M 291.5,53.5 C 296.27,54.9067 297.936,57.9067 296.5,62.5C 295.548,60.9547 295.215,59.288 295.5,57.5C 294.5,57.5 293.5,57.5 292.5,57.5C 292.66,59.1992 292.494,60.8659 292,62.5C 291.502,59.5184 291.335,56.5184 291.5,53.5 Z"/></g>
<g><path style="opacity:1" fill="#5e7cab" d="M 319.5,56.5 C 319.56,55.9569 319.893,55.6236 320.5,55.5C 321.5,56.1667 322.5,56.8333 323.5,57.5C 326.91,54.4138 328.91,55.0805 329.5,59.5C 326.832,59.6663 324.498,60.6663 322.5,62.5C 321.989,60.1161 320.989,58.1161 319.5,56.5 Z"/></g>
<g><path style="opacity:1" fill="#3e516f" d="M 343.5,57.5 C 344.249,58.531 344.915,59.6976 345.5,61C 346.738,60.9227 347.738,61.0894 348.5,61.5C 344.566,63.2424 342.899,61.909 343.5,57.5 Z"/></g>
<g><path style="opacity:1" fill="#5875a0" d="M 274.5,55.5 C 278.317,56.5335 279.317,58.8668 277.5,62.5C 276.167,55.8333 274.833,55.8333 273.5,62.5C 272.167,59.8619 272.5,57.5286 274.5,55.5 Z"/></g>
<g><path style="opacity:1" fill="#4d668c" d="M 267.5,55.5 C 268.583,55.5394 269.583,55.8728 270.5,56.5C 271.466,58.396 271.799,60.396 271.5,62.5C 269.533,62.7394 267.699,62.4061 266,61.5C 265.729,59.193 266.895,58.0264 269.5,58C 268.167,57.6667 266.833,57.3333 265.5,57C 266.416,56.7216 267.082,56.2216 267.5,55.5 Z"/></g>
<g><path style="opacity:1" fill="#5875a0" d="M 281.5,55.5 C 285.184,56.372 286.184,58.5386 284.5,62C 279.148,62.1754 278.148,60.0087 281.5,55.5 Z"/></g>
<g><path style="opacity:1" fill="#3e5270" d="M 302.5,57.5 C 302.56,56.9569 302.893,56.6236 303.5,56.5C 304.386,57.325 304.719,58.325 304.5,59.5C 298.49,59.2245 298.157,60.0579 303.5,62C 299.333,63.1667 297.833,61.6667 299,57.5C 301.027,58.8136 302.193,58.8136 302.5,57.5 Z"/></g>
<g><path style="opacity:1" fill="#c4551c" d="M 3.5,78.5 C 210.167,78.3333 416.834,78.5 623.5,79C 624.66,100.427 624.826,121.927 624,143.5C 417.236,144.666 210.403,144.833 3.5,144C 2.17187,122.167 2.17187,100.333 3.5,78.5 Z"/></g>
<g><path style="opacity:1" fill="#4c2410" d="M 281.5,84.5 C 286.295,83.5635 289.628,85.2302 291.5,89.5C 291.471,91.0293 290.804,92.196 289.5,93C 287.527,93.4955 285.527,93.6621 283.5,93.5C 283.799,95.604 283.466,97.604 282.5,99.5C 281.506,94.544 281.173,89.544 281.5,84.5 Z"/></g>
<g><path style="opacity:1" fill="#c2541c" d="M 283.5,86.5 C 288.667,85.4919 290.334,87.3252 288.5,92C 286.866,92.4935 285.199,92.6602 283.5,92.5C 283.5,90.5 283.5,88.5 283.5,86.5 Z"/></g>
<g><path style="opacity:1" fill="#3d1e0e" d="M 340.5,84.5 C 343.588,84.367 345.588,85.7003 346.5,88.5C 345.233,90.9435 343.733,93.2769 342,95.5C 342.952,92.6418 343.785,89.6418 344.5,86.5C 342.508,86.3285 340.842,86.9951 339.5,88.5C 339.167,88.1667 338.833,87.8333 338.5,87.5C 339.193,86.4822 339.859,85.4822 340.5,84.5 Z"/></g>
<g><path style="opacity:1" fill="#46210f" d="M 293.5,88.5 C 295.153,89.6045 296.82,89.7712 298.5,89C 297.975,89.6924 297.308,90.1924 296.5,90.5C 295.833,93.5 295.167,96.5 294.5,99.5C 293.511,95.8927 293.177,92.226 293.5,88.5 Z"/></g>
<g><path style="opacity:1" fill="#2e170c" d="M 314.5,89.5 C 312.86,92.5275 312.026,95.8609 312,99.5C 311.333,95.8333 311.333,92.1667 312,88.5C 312.671,89.2524 313.504,89.5858 314.5,89.5 Z"/></g>
<g><path style="opacity:1" fill="#4b2410" d="M 314.5,89.5 C 317.695,89.3697 321.029,89.3697 324.5,89.5C 325.657,92.7844 325.824,96.1177 325,99.5C 324.667,96.8333 324.333,94.1667 324,91.5C 322.644,90.6198 321.144,90.2865 319.5,90.5C 318.993,102.482 318.16,102.482 317,90.5C 316.329,89.7476 315.496,89.4142 314.5,89.5 Z"/></g>
<g><path style="opacity:1" fill="#422010" d="M 302.5,88.5 C 309.575,89.3269 311.242,92.8269 307.5,99C 301.143,100.481 298.643,97.9806 300,91.5C 301.045,90.6266 301.878,89.6266 302.5,88.5 Z"/></g>
<g><path style="opacity:1" fill="#ba511b" d="M 303.5,89.5 C 307.254,90.8276 308.421,93.4942 307,97.5C 303.884,99.0239 302.05,98.0239 301.5,94.5C 301.437,92.4861 302.103,90.8194 303.5,89.5 Z"/></g>
<g><path style="opacity:1" fill="#331a0e" d="M 329.5,90.5 C 334.016,87.2969 336.349,88.6302 336.5,94.5C 334.167,94.5 331.833,94.5 329.5,94.5C 330.556,98.6852 332.723,99.3519 336,96.5C 336.617,97.4491 336.451,98.2825 335.5,99C 330.594,100.756 327.927,99.0893 327.5,94C 327.387,92.3009 328.053,91.1342 329.5,90.5 Z"/></g>
<g><path style="opacity:1" fill="#a34718" d="M 329.5,90.5 C 332.205,88.8464 334.205,89.5131 335.5,92.5C 333.604,93.4656 331.604,93.7989 329.5,93.5C 329.5,92.5 329.5,91.5 329.5,90.5 Z"/></g>
<g><path style="opacity:1" fill="#492311" d="M 341.5,97.5 C 343.337,97.6395 343.67,98.3061 342.5,99.5C 341.702,99.0431 341.369,98.3764 341.5,97.5 Z"/></g>
<g><path style="opacity:1" fill="#843b16" d="M 202.5,110.5 C 208.367,109.737 209.533,111.403 206,115.5C 205.517,114.552 205.351,113.552 205.5,112.5C 203.821,112.715 202.821,112.048 202.5,110.5 Z"/></g>
<g><path style="opacity:1" fill="#833a16" d="M 224.5,110.5 C 226.084,111.382 227.751,112.215 229.5,113C 231.825,118.154 230.158,120.321 224.5,119.5C 224.5,116.5 224.5,113.5 224.5,110.5 Z"/></g>
<g><path style="opacity:1" fill="#622c12" d="M 305.5,110.5 C 306.314,112.631 306.814,114.964 307,117.5C 308.333,118.833 309.667,118.833 311,117.5C 311.333,115.167 311.667,112.833 312,110.5C 312.777,113.429 312.61,116.263 311.5,119C 309.559,119.743 307.726,119.576 306,118.5C 305.503,115.854 305.336,113.187 305.5,110.5 Z"/></g>
<g><path style="opacity:1" fill="#763514" d="M 399.5,110.5 C 402.272,110.627 403.605,112.127 403.5,115C 403.825,119.157 402.158,120.324 398.5,118.5C 397.025,115.557 397.358,112.891 399.5,110.5 Z"/></g>
<g><path style="opacity:1" fill="#682f12" d="M 290.5,110.5 C 292.665,110.116 294.332,110.783 295.5,112.5C 295.333,112.833 295.167,113.167 295,113.5C 294.163,111.993 292.996,111.493 291.5,112C 289.996,113.491 289.163,115.324 289,117.5C 288.167,114.829 288.667,112.496 290.5,110.5 Z"/></g>
<g><path style="opacity:1" fill="#be521c" d="M 391.5,111.5 C 391.5,113.833 391.5,116.167 391.5,118.5C 390.5,118.5 389.5,118.5 388.5,118.5C 388.338,116.473 388.505,114.473 389,112.5C 389.671,111.748 390.504,111.414 391.5,111.5 Z"/></g>
<g><path style="opacity:1" fill="#c1531c" d="M 399.5,112.5 C 400.5,112.5 401.5,112.5 402.5,112.5C 402.949,114.977 402.283,116.977 400.5,118.5C 399.534,116.604 399.201,114.604 399.5,112.5 Z"/></g>
<g><path style="opacity:1" fill="#5f2b11" d="M 406.5,110.5 C 407.765,111.514 408.431,113.014 408.5,115C 408.333,116.5 408.167,118 408,119.5C 407.971,116.633 407.138,114.133 405.5,112C 406.056,111.617 406.389,111.117 406.5,110.5 Z"/></g>
<g><path style="opacity:1" fill="#8e3f17" d="M 232.5,110.5 C 234.106,111.8 235.773,113.134 237.5,114.5C 238.478,114.023 239.311,113.357 240,112.5C 239.65,117.014 237.15,119.347 232.5,119.5C 232.5,116.5 232.5,113.5 232.5,110.5 Z"/></g>
<g><path style="opacity:1" fill="#813915" d="M 258.5,112.5 C 259.873,112.343 261.207,112.51 262.5,113C 261.072,114.916 260.072,117.083 259.5,119.5C 258.526,117.257 258.192,114.924 258.5,112.5 Z"/></g>
<g><path style="opacity:1" fill="#8a3d17" d="M 271.5,112.5 C 273.39,112.297 274.89,112.963 276,114.5C 278.179,112.363 280.679,112.029 283.5,113.5C 281.955,114.452 280.288,114.785 278.5,114.5C 278.785,116.288 278.452,117.955 277.5,119.5C 276.614,118.675 276.281,117.675 276.5,116.5C 274.712,116.215 273.045,116.548 271.5,117.5C 272.651,118.731 273.817,118.731 275,117.5C 275.167,117.833 275.333,118.167 275.5,118.5C 269.701,119.576 268.368,117.576 271.5,112.5 Z"/></g>
<g><path style="opacity:1" fill="#843b16" d="M 322.5,112.5 C 324.205,113.535 325.872,113.535 327.5,112.5C 328.503,114.542 329.837,114.875 331.5,113.5C 333.207,117.136 334.374,117.136 335,113.5C 335.946,115.956 335.446,117.956 333.5,119.5C 332.184,116.972 331.017,116.972 330,119.5C 328.26,118.284 327.26,116.618 327,114.5C 327.203,118.637 325.37,120.137 321.5,119C 320.144,116.586 320.478,114.419 322.5,112.5 Z"/></g>
<g><path style="opacity:1" fill="#713313" d="M 391.5,111.5 C 393.441,113.011 393.941,115.011 393,117.5C 391.73,119.578 390.23,119.912 388.5,118.5C 389.5,118.5 390.5,118.5 391.5,118.5C 391.5,116.167 391.5,113.833 391.5,111.5 Z"/></g>
<g><path style="opacity:1" fill="#7f3915" d="M 217.5,110.5 C 218.268,111.263 218.768,112.263 219,113.5C 221.306,112.418 222.806,113.252 223.5,116C 222.567,118.818 220.567,119.984 217.5,119.5C 217.5,116.5 217.5,113.5 217.5,110.5 Z"/></g>
<g><path style="opacity:1" fill="#883c17" d="M 251.5,114.5 C 251.5,115.5 251.5,116.5 251.5,117.5C 249.757,119.436 247.757,119.77 245.5,118.5C 246.397,118.331 247.397,117.998 248.5,117.5C 247.675,116.614 246.675,116.281 245.5,116.5C 246.015,111.917 248.015,111.251 251.5,114.5 Z"/></g>
<g><path style="opacity:1" fill="#7c3715" d="M 347.5,111.5 C 348.643,111.908 349.643,112.575 350.5,113.5C 349.656,115.693 349.323,117.693 349.5,119.5C 348.914,119.291 348.414,118.957 348,118.5C 347.503,116.19 347.337,113.857 347.5,111.5 Z"/></g>
<g><path style="opacity:1" fill="#7c3715" d="M 355.5,111.5 C 356.643,111.908 357.643,112.575 358.5,113.5C 357.656,115.693 357.323,117.693 357.5,119.5C 356.914,119.291 356.414,118.957 356,118.5C 355.503,116.19 355.337,113.857 355.5,111.5 Z"/></g>
<g><path style="opacity:1" fill="#642d11" d="M 368.5,113.5 C 369.189,112.226 370.023,112.226 371,113.5C 371.667,115.5 371.667,117.5 371,119.5C 370.963,117.026 370.13,115.026 368.5,113.5 Z"/></g>
<g><path style="opacity:1" fill="#7a3615" d="M 391.5,111.5 C 390.504,111.414 389.671,111.748 389,112.5C 388.505,114.473 388.338,116.473 388.5,118.5C 386.559,116.989 386.059,114.989 387,112.5C 388.347,110.534 389.847,110.201 391.5,111.5 Z"/></g>
<g><path style="opacity:1" fill="#693013" d="M 211.5,112.5 C 212.822,112.33 213.989,112.663 215,113.5C 215.495,115.473 215.662,117.473 215.5,119.5C 213.833,119.5 212.167,119.5 210.5,119.5C 210.22,116.612 211.553,115.112 214.5,115C 213.428,113.716 212.095,113.383 210.5,114C 211.056,113.617 211.389,113.117 211.5,112.5 Z"/></g>
<g><path style="opacity:1" fill="#411f0e" d="M 251.5,114.5 C 253.086,115.148 254.753,115.648 256.5,116C 254.598,116.199 253.098,117.033 252,118.5C 251.601,118.272 251.435,117.938 251.5,117.5C 251.5,116.5 251.5,115.5 251.5,114.5 Z"/></g>
<g><path style="opacity:1" fill="#672f13" d="M 267.5,113.5 C 268.629,115.666 268.129,117.666 266,119.5C 266.15,117.494 266.65,115.494 267.5,113.5 Z"/></g>
<g><path style="opacity:1" fill="#4a230f" d="M 301.5,111.5 C 303.344,112.204 303.844,113.537 303,115.5C 301.644,116.38 300.144,116.714 298.5,116.5C 297.223,117.317 296.89,115.317 297.5,110.5C 299.099,110.232 300.432,110.566 301.5,111.5 Z"/></g>
<g><path style="opacity:1" fill="#b74f1b" d="M 301.5,111.5 C 302.954,114.4 301.954,115.733 298.5,115.5C 298.5,114.167 298.5,112.833 298.5,111.5C 299.5,111.5 300.5,111.5 301.5,111.5 Z"/></g>
<g><path style="opacity:1" fill="#693013" d="M 338.5,112.5 C 339.822,112.33 340.989,112.663 342,113.5C 342.495,115.473 342.662,117.473 342.5,119.5C 340.833,119.5 339.167,119.5 337.5,119.5C 337.22,116.612 338.553,115.112 341.5,115C 340.428,113.716 339.095,113.383 337.5,114C 338.056,113.617 338.389,113.117 338.5,112.5 Z"/></g>
<g><path style="opacity:1" fill="#592911" d="M 368.5,113.5 C 367.815,115.414 367.315,117.414 367,119.5C 366.907,116.993 366.074,114.826 364.5,113C 365.819,112.805 367.153,112.972 368.5,113.5 Z"/></g>
<g><path style="opacity:1" fill="#6d3114" d="M 374.5,112.5 C 377.5,112.167 378.833,113.5 378.5,116.5C 377.022,116.238 375.689,116.571 374.5,117.5C 375.98,118.113 377.313,118.446 378.5,118.5C 372.701,119.576 371.368,117.576 374.5,112.5 Z"/></g>
<g><path style="opacity:1" fill="#8e3f17" d="M 412.5,110.5 C 414.582,110.472 416.416,111.139 418,112.5C 419.133,110.789 420.633,110.289 422.5,111C 423.523,113.449 424.023,115.949 424,118.5C 419.839,118.586 415.672,118.586 411.5,118.5C 410.025,115.557 410.358,112.891 412.5,110.5 Z"/></g>
<g><path style="opacity:1" fill="#652e12" d="M 291.5,130.5 C 293.364,129.207 295.364,129.207 297.5,130.5C 296.253,133.329 294.753,135.995 293,138.5C 293.203,136.063 294.037,133.729 295.5,131.5C 294.311,130.571 292.978,130.238 291.5,130.5 Z"/></g>
<g><path style="opacity:1" fill="#833a16" d="M 380.5,129.5 C 382.084,130.382 383.751,131.215 385.5,132C 387.825,137.154 386.158,139.321 380.5,138.5C 380.5,135.5 380.5,132.5 380.5,129.5 Z"/></g>
<g><path style="opacity:1" fill="#863b16" d="M 486.5,129.5 C 488.857,129.337 491.19,129.503 493.5,130C 496.215,133.355 496.048,136.521 493,139.5C 492.28,137.888 492.446,136.388 493.5,135C 492.91,133.491 492.244,131.991 491.5,130.5C 490.158,132.005 488.492,132.672 486.5,132.5C 486.5,131.5 486.5,130.5 486.5,129.5 Z"/></g>
<g><path style="opacity:1" fill="#682e12" d="M 280.5,129.5 C 281.638,132.304 281.805,135.304 281,138.5C 280.667,136.167 280.333,133.833 280,131.5C 279.346,132.696 278.846,132.696 278.5,131.5C 279.243,130.818 279.909,130.151 280.5,129.5 Z"/></g>
<g><path style="opacity:1" fill="#552810" d="M 321.5,129.5 C 322.765,130.514 323.431,132.014 323.5,134C 323.333,135.5 323.167,137 323,138.5C 322.971,135.633 322.138,133.133 320.5,131C 321.056,130.617 321.389,130.117 321.5,129.5 Z"/></g>
<g><path style="opacity:1" fill="#8a3d17" d="M 353.5,129.5 C 355.39,129.297 356.89,129.963 358,131.5C 358.456,132.744 357.956,133.577 356.5,134C 357.167,134.667 357.833,135.333 358.5,136C 357.045,138.016 355.045,138.849 352.5,138.5C 353.344,135.455 353.677,132.455 353.5,129.5 Z"/></g>
<g><path style="opacity:1" fill="#5f2b11" d="M 504.5,129.5 C 505.765,130.514 506.431,132.014 506.5,134C 506.333,135.5 506.167,137 506,138.5C 505.971,135.633 505.138,133.133 503.5,131C 504.056,130.617 504.389,130.117 504.5,129.5 Z"/></g>
<g><path style="opacity:1" fill="#823915" d="M 135.5,131.5 C 141.067,130.753 142.9,133.087 141,138.5C 139.749,130.567 138.249,130.567 136.5,138.5C 135.526,136.257 135.192,133.924 135.5,131.5 Z"/></g>
<g><path style="opacity:1" fill="#7f3815" d="M 219.5,131.5 C 225.067,130.753 226.9,133.087 225,138.5C 223.502,132.001 222.002,132.001 220.5,138.5C 219.526,136.257 219.192,133.924 219.5,131.5 Z"/></g>
<g><path style="opacity:1" fill="#7f3815" d="M 244.5,131.5 C 250.067,130.753 251.9,133.087 250,138.5C 248.502,132.001 247.002,132.001 245.5,138.5C 244.526,136.257 244.192,133.924 244.5,131.5 Z"/></g>
<g><path style="opacity:1" fill="#733314" d="M 253.5,131.5 C 254.922,131.709 256.255,132.209 257.5,133C 255.381,133.098 253.714,133.931 252.5,135.5C 252.833,136.5 253.5,137.167 254.5,137.5C 255.451,136.674 256.451,136.508 257.5,137C 255.798,138.718 253.965,138.885 252,137.5C 251.252,135.16 251.752,133.16 253.5,131.5 Z"/></g>
<g><path style="opacity:1" fill="#8c3d16" d="M 433.5,129.5 C 434.765,130.514 435.431,132.014 435.5,134C 435.167,135.5 434.833,137 434.5,138.5C 433.167,131.833 431.833,131.833 430.5,138.5C 429.526,136.257 429.192,133.924 429.5,131.5C 431.483,131.843 432.817,131.176 433.5,129.5 Z"/></g>
<g><path style="opacity:1" fill="#7a3614" d="M 449.5,132.5 C 448.815,134.414 448.315,136.414 448,138.5C 447.115,131.922 445.948,131.922 444.5,138.5C 443.526,136.257 443.192,133.924 443.5,131.5C 445.565,131.517 447.565,131.85 449.5,132.5 Z"/></g>
<g><path style="opacity:1" fill="#7f3815" d="M 467.5,131.5 C 468.239,131.369 468.906,131.536 469.5,132C 468.072,133.916 467.072,136.083 466.5,138.5C 465.167,135.862 465.5,133.529 467.5,131.5 Z"/></g>
<g><path style="opacity:1" fill="#843a16" d="M 149.5,131.5 C 152.672,131.928 155.672,132.095 158.5,132C 159.769,134.139 159.769,136.305 158.5,138.5C 157.167,131.833 155.833,131.833 154.5,138.5C 153.167,131.833 151.833,131.833 150.5,138.5C 149.526,136.257 149.192,133.924 149.5,131.5 Z"/></g>
<g><path style="opacity:1" fill="#733314" d="M 230.5,135.5 C 229.5,135.5 228.5,135.5 227.5,135.5C 227.238,132.079 228.572,131.079 231.5,132.5C 232.478,132.023 233.311,131.357 234,130.5C 234.925,131.047 235.758,131.713 236.5,132.5C 235.656,134.693 235.323,136.693 235.5,138.5C 233.783,137.332 233.116,135.665 233.5,133.5C 231.801,133.34 230.134,133.506 228.5,134C 229.416,134.278 230.082,134.778 230.5,135.5 Z"/></g>
<g><path style="opacity:1" fill="#562812" d="M 288.5,130.5 C 289.969,133.102 289.302,135.269 286.5,137C 289.937,137.649 290.104,138.149 287,138.5C 286.167,138.167 285.333,137.833 284.5,137.5C 286.734,135.619 288.067,133.285 288.5,130.5 Z"/></g>
<g><path style="opacity:1" fill="#944118" d="M 375.5,131.5 C 379.264,132.385 380.264,134.552 378.5,138C 373.148,138.175 372.148,136.009 375.5,131.5 Z"/></g>
<g><path style="opacity:1" fill="#552710" d="M 418.5,130.5 C 419.289,130.783 419.956,131.283 420.5,132C 419.68,134.333 419.347,136.5 419.5,138.5C 418.52,135.914 418.187,133.247 418.5,130.5 Z"/></g>
<g><path style="opacity:1" fill="#873c16" d="M 449.5,132.5 C 449.56,131.957 449.893,131.624 450.5,131.5C 451.5,132.167 452.5,132.833 453.5,133.5C 456.91,130.414 458.91,131.08 459.5,135.5C 456.832,135.666 454.498,136.666 452.5,138.5C 451.989,136.116 450.989,134.116 449.5,132.5 Z"/></g>
<g><path style="opacity:1" fill="#5d2a11" d="M 462.5,130.5 C 463.289,130.783 463.956,131.283 464.5,132C 463.68,134.333 463.347,136.5 463.5,138.5C 462.085,135.816 461.752,133.149 462.5,130.5 Z"/></g>
<g><path style="opacity:1" fill="#411f0e" d="M 160.5,133.5 C 162.086,134.148 163.753,134.648 165.5,135C 163.598,135.199 162.098,136.033 161,137.5C 160.51,136.207 160.343,134.873 160.5,133.5 Z"/></g>
<g><path style="opacity:1" fill="#411f0e" d="M 258.5,133.5 C 260.086,134.148 261.753,134.648 263.5,135C 261.598,135.199 260.098,136.033 259,137.5C 258.51,136.207 258.343,134.873 258.5,133.5 Z"/></g>
<g><path style="opacity:1" fill="#6a3013" d="M 304.5,130.5 C 306.441,132.011 306.941,134.011 306,136.5C 304.933,138.283 303.433,138.783 301.5,138C 300.398,135.599 300.231,133.099 301,130.5C 302.292,129.209 303.458,129.209 304.5,130.5 Z"/></g>
<g><path style="opacity:1" fill="#c0531c" d="M 304.5,130.5 C 304.808,132.924 304.474,135.257 303.5,137.5C 301.554,135.956 301.054,133.956 302,131.5C 302.671,130.748 303.504,130.414 304.5,130.5 Z"/></g>
<g><path style="opacity:1" fill="#682f12" d="M 312.5,130.5 C 313.542,129.209 314.708,129.209 316,130.5C 316.769,133.099 316.602,135.599 315.5,138C 311.014,138.244 309.514,136.077 311,131.5C 311.383,130.944 311.883,130.611 312.5,130.5 Z"/></g>
<g><path style="opacity:1" fill="#c0531c" d="M 312.5,130.5 C 314.722,130.559 315.722,131.725 315.5,134C 315.612,135.662 314.946,136.829 313.5,137.5C 312.526,135.257 312.192,132.924 312.5,130.5 Z"/></g>
<g><path style="opacity:1" fill="#7a3615" d="M 331.5,129.5 C 333.635,129.147 334.968,129.98 335.5,132C 335.026,133.704 334.859,135.538 335,137.5C 332.52,139.09 330.687,138.59 329.5,136C 330.833,134.667 330.833,133.333 329.5,132C 330.056,130.989 330.722,130.156 331.5,129.5 Z"/></g>
<g><path style="opacity:1" fill="#642d12" d="M 401.5,132.5 C 403.175,134.179 404.008,136.179 404,138.5C 402.337,136.842 401.504,134.842 401.5,132.5 Z"/></g>
<g><path style="opacity:1" fill="#733314" d="M 412.5,131.5 C 414.103,131.312 415.437,131.812 416.5,133C 413.172,132.167 411.839,133.667 412.5,137.5C 414.109,137.094 415.443,137.094 416.5,137.5C 410.701,138.576 409.368,136.576 412.5,131.5 Z"/></g>
<g><path style="opacity:1" fill="#833a16" d="M 423.5,131.5 C 429.096,132.61 429.762,134.944 425.5,138.5C 422.337,137.075 421.67,134.742 423.5,131.5 Z"/></g>
<g><path style="opacity:1" fill="#582911" d="M 473.5,133.5 C 474.249,134.531 474.915,135.698 475.5,137C 476.738,136.923 477.738,137.089 478.5,137.5C 474.566,139.242 472.899,137.909 473.5,133.5 Z"/></g>
<g><path style="opacity:1" fill="#7f3815" d="M 200.5,131.5 C 203.857,132.121 205.024,134.121 204,137.5C 202.004,137.996 200.337,138.996 199,140.5C 198.094,137.156 198.594,134.156 200.5,131.5 Z"/></g>
<g><path style="opacity:1" fill="#4f2511" d="M 340.5,129.5 C 342.141,131.203 343.141,133.37 343.5,136C 342.874,136.75 342.374,137.584 342,138.5C 340.796,137.141 339.296,136.141 337.5,135.5C 338.557,135.094 339.891,135.094 341.5,135.5C 341.64,133.876 340.973,132.71 339.5,132C 340.252,131.329 340.586,130.496 340.5,129.5 Z"/></g>
<g><path style="opacity:1" fill="#7e3815" d="M 121.5,129.5 C 122.239,129.369 122.906,129.536 123.5,130C 120.833,133.333 120.833,136.667 123.5,140C 123.167,140.167 122.833,140.333 122.5,140.5C 119.124,137.118 118.791,133.452 121.5,129.5 Z"/></g>
<g><path style="opacity:1" fill="#883c16" d="M 144.5,131.5 C 145.583,131.539 146.583,131.873 147.5,132.5C 148.466,134.396 148.799,136.396 148.5,138.5C 142.37,138.804 141.037,136.471 144.5,131.5 Z"/></g>
<g><path style="opacity:1" fill="#6a3013" d="M 230.5,135.5 C 232.549,135.706 232.883,136.539 231.5,138C 230.167,138.667 228.833,138.667 227.5,138C 229.119,137.764 230.119,136.931 230.5,135.5 Z"/></g>
<g><path style="opacity:1" fill="#6f3214" d="M 239.5,131.5 C 240.583,131.539 241.583,131.873 242.5,132.5C 243.466,134.396 243.799,136.396 243.5,138.5C 241.533,138.739 239.699,138.406 238,137.5C 237.729,135.193 238.895,134.026 241.5,134C 240.167,133.667 238.833,133.333 237.5,133C 238.416,132.722 239.082,132.222 239.5,131.5 Z"/></g>
<g><path style="opacity:1" fill="#853b16" d="M 438.5,131.5 C 439.583,131.539 440.583,131.873 441.5,132.5C 442.466,134.396 442.799,136.396 442.5,138.5C 436.245,138.991 434.912,136.658 438.5,131.5 Z"/></g>
<g><path style="opacity:1" fill="#592811" d="M 191.5,132.5 C 193.255,138.808 194.755,138.808 196,132.5C 196.495,134.473 196.662,136.473 196.5,138.5C 192.092,138.938 190.425,136.938 191.5,132.5 Z"/></g>
<g><path style="opacity:1" fill="#562811" d="M 483.5,135.5 C 485.549,135.706 485.883,136.539 484.5,138C 483.056,138.781 481.723,138.614 480.5,137.5C 480.938,136.494 481.604,136.494 482.5,137.5C 483.298,137.043 483.631,136.376 483.5,135.5 Z"/></g>
<g><path style="opacity:1" fill="#337c2b" d="M 4.5,154.5 C 78.8341,154.333 153.167,154.5 227.5,155C 228,155.5 228.5,156 229,156.5C 229.667,177.167 229.667,197.833 229,218.5C 228.5,219 228,219.5 227.5,220C 153.167,220.667 78.8333,220.667 4.5,220C 4,219.5 3.5,219 3,218.5C 2.33333,197.833 2.33333,177.167 3,156.5C 3.71719,155.956 4.21719,155.289 4.5,154.5 Z"/></g>
<g><path style="opacity:1" fill="#dcb100" d="M 240.5,154.5 C 368.167,154.333 495.834,154.5 623.5,155C 624.665,227.096 624.831,299.263 624,371.5C 496.236,372.666 368.403,372.832 240.5,372C 239.168,299.5 239.168,227 240.5,154.5 Z"/></g>
<g><path style="opacity:1" fill="#142111" d="M 109.5,182.5 C 102.536,180.456 99.5365,183.123 100.5,190.5C 98.9732,187.204 99.3065,184.038 101.5,181C 104.807,178.664 107.473,179.164 109.5,182.5 Z"/></g>
<g><path style="opacity:1" fill="#317529" d="M 109.5,182.5 C 111.208,186.459 110.542,189.959 107.5,193C 104.793,193.317 102.46,192.484 100.5,190.5C 99.5365,183.123 102.536,180.456 109.5,182.5 Z"/></g>
<g><path style="opacity:1" fill="#152612" d="M 128.5,179.5 C 131.585,179.418 133.252,180.918 133.5,184C 132.008,186.009 130.674,188.176 129.5,190.5C 128.417,189.635 128.251,188.635 129,187.5C 130.298,186.44 131.465,185.274 132.5,184C 130.884,180.94 128.884,180.773 126.5,183.5C 126.167,183.167 125.833,182.833 125.5,182.5C 126.34,181.265 127.34,180.265 128.5,179.5 Z"/></g>
<g><path style="opacity:1" fill="#142111" d="M 114.5,180.5 C 115.314,182.631 115.814,184.964 116,187.5C 118.209,185.627 120.042,183.46 121.5,181C 122.167,180.333 122.833,180.333 123.5,181C 121.913,182.845 120.579,184.845 119.5,187C 121.152,189.323 122.819,191.656 124.5,194C 123.833,194.667 123.167,194.667 122.5,194C 121.174,191.842 119.507,190.008 117.5,188.5C 115.869,190.059 115.036,192.059 115,194.5C 114.501,189.845 114.334,185.179 114.5,180.5 Z"/></g>
<g><path style="opacity:1" fill="#121e0f" d="M 109.5,182.5 C 110.117,182.611 110.617,182.944 111,183.5C 113.165,191.321 110.332,194.821 102.5,194C 101.177,193.184 100.511,192.017 100.5,190.5C 102.46,192.484 104.793,193.317 107.5,193C 110.542,189.959 111.208,186.459 109.5,182.5 Z"/></g>
<g><path style="opacity:1" fill="#dcb100" d="M 3.5,230.5 C 78.7375,230.168 153.904,230.502 229,231.5C 229.832,329.07 229.665,426.57 228.5,524C 153.263,524.831 78.0965,524.665 3,523.5C 2.16931,425.763 2.33597,328.097 3.5,230.5 Z"/></g>
<g><path style="opacity:1" fill="#4c3e0a" d="M 308.5,247.5 C 309.496,247.414 310.329,247.748 311,248.5C 313.389,257.613 309.889,261.613 300.5,260.5C 300.5,255.5 300.5,250.5 300.5,245.5C 303.553,245.111 306.22,245.777 308.5,247.5 Z"/></g>
<g><path style="opacity:1" fill="#0a0907" d="M 451.5,246.5 C 451.5,246.833 451.5,247.167 451.5,247.5C 449.5,247.5 447.5,247.5 445.5,247.5C 445.5,251.167 445.5,254.833 445.5,258.5C 446.919,259.451 448.585,259.784 450.5,259.5C 448.735,260.461 446.735,260.795 444.5,260.5C 444.5,255.833 444.5,251.167 444.5,246.5C 446.833,246.5 449.167,246.5 451.5,246.5 Z"/></g>
<g><path style="opacity:1" fill="#d4ab00" d="M 308.5,247.5 C 312.701,254.846 310.701,258.512 302.5,258.5C 302.5,254.833 302.5,251.167 302.5,247.5C 304.5,247.5 306.5,247.5 308.5,247.5 Z"/></g>
<g><path style="opacity:1" fill="#352b08" d="M 315.5,251.5 C 313.967,247.206 315.634,245.372 320.5,246C 322.615,246.424 323.448,247.591 323,249.5C 321.192,247.604 319.025,247.104 316.5,248C 315.663,249.011 315.33,250.178 315.5,251.5 Z"/></g>
<g><path style="opacity:1" fill="#d3aa00" d="M 451.5,247.5 C 455.681,254.804 453.681,258.471 445.5,258.5C 445.5,254.833 445.5,251.167 445.5,247.5C 447.5,247.5 449.5,247.5 451.5,247.5 Z"/></g>
<g><path style="opacity:1" fill="#4c3f07" d="M 366.5,246.5 C 367.58,248.361 368.914,249.027 370.5,248.5C 370.026,250.272 368.86,251.939 367,253.5C 366.119,251.726 364.953,251.06 363.5,251.5C 364.025,250.808 364.692,250.308 365.5,250C 364.044,249.577 363.544,248.744 364,247.5C 365.461,248.883 366.294,248.549 366.5,246.5 Z"/></g>
<g><path style="opacity:1" fill="#5e4d07" d="M 375.5,245.5 C 376.826,247.123 378.159,248.123 379.5,248.5C 378.975,249.192 378.308,249.692 377.5,250C 378.956,250.423 379.456,251.256 379,252.5C 377.605,251.185 376.605,251.519 376,253.5C 375.667,252.833 375.333,252.167 375,251.5C 371.89,252.673 371.723,252.173 374.5,250C 373.692,249.692 373.025,249.192 372.5,248.5C 373.274,247.289 374.107,247.289 375,248.5C 375.483,247.552 375.649,246.552 375.5,245.5 Z"/></g>
<g><path style="opacity:1" fill="#4c3f07" d="M 385.5,246.5 C 386.58,248.361 387.914,249.027 389.5,248.5C 389.026,250.272 387.86,251.939 386,253.5C 385.119,251.726 383.953,251.06 382.5,251.5C 383.025,250.808 383.692,250.308 384.5,250C 383.044,249.577 382.544,248.744 383,247.5C 384.461,248.883 385.294,248.549 385.5,246.5 Z"/></g>
<g><path style="opacity:1" fill="#5e4d07" d="M 422.5,245.5 C 423.826,247.123 425.159,248.123 426.5,248.5C 425.975,249.192 425.308,249.692 424.5,250C 425.956,250.423 426.456,251.256 426,252.5C 424.605,251.185 423.605,251.519 423,253.5C 422.667,252.833 422.333,252.167 422,251.5C 418.89,252.673 418.723,252.173 421.5,250C 420.692,249.692 420.025,249.192 419.5,248.5C 420.274,247.289 421.107,247.289 422,248.5C 422.483,247.552 422.649,246.552 422.5,245.5 Z"/></g>
<g><path style="opacity:1" fill="#4c3f07" d="M 432.5,246.5 C 433.58,248.361 434.914,249.027 436.5,248.5C 436.026,250.272 434.86,251.939 433,253.5C 432.119,251.726 430.953,251.06 429.5,251.5C 430.025,250.808 430.692,250.308 431.5,250C 430.044,249.577 429.544,248.744 430,247.5C 431.461,248.883 432.294,248.549 432.5,246.5 Z"/></g>
<g><path style="opacity:1" fill="#5e4d07" d="M 503.5,245.5 C 504.826,247.123 506.159,248.123 507.5,248.5C 506.975,249.192 506.308,249.692 505.5,250C 506.956,250.423 507.456,251.256 507,252.5C 505.605,251.185 504.605,251.519 504,253.5C 503.667,252.833 503.333,252.167 503,251.5C 499.89,252.673 499.723,252.173 502.5,250C 501.692,249.692 501.025,249.192 500.5,248.5C 501.274,247.289 502.107,247.289 503,248.5C 503.483,247.552 503.649,246.552 503.5,245.5 Z"/></g>
<g><path style="opacity:1" fill="#4c3f07" d="M 513.5,246.5 C 514.58,248.361 515.914,249.027 517.5,248.5C 517.026,250.272 515.86,251.939 514,253.5C 513.119,251.726 511.953,251.06 510.5,251.5C 511.025,250.808 511.692,250.308 512.5,250C 511.044,249.577 510.544,248.744 511,247.5C 512.461,248.883 513.294,248.549 513.5,246.5 Z"/></g>
<g><path style="opacity:1" fill="#5e4d07" d="M 522.5,245.5 C 523.826,247.123 525.159,248.123 526.5,248.5C 525.975,249.192 525.308,249.692 524.5,250C 525.956,250.423 526.456,251.256 526,252.5C 524.605,251.185 523.605,251.519 523,253.5C 522.667,252.833 522.333,252.167 522,251.5C 518.89,252.673 518.723,252.173 521.5,250C 520.692,249.692 520.025,249.192 519.5,248.5C 520.274,247.289 521.107,247.289 522,248.5C 522.483,247.552 522.649,246.552 522.5,245.5 Z"/></g>
<g><path style="opacity:1" fill="#4c3f07" d="M 560.5,246.5 C 561.58,248.361 562.914,249.027 564.5,248.5C 564.026,250.272 562.86,251.939 561,253.5C 560.119,251.726 558.953,251.06 557.5,251.5C 558.025,250.808 558.692,250.308 559.5,250C 558.044,249.577 557.544,248.744 558,247.5C 559.461,248.883 560.294,248.549 560.5,246.5 Z"/></g>
<g><path style="opacity:1" fill="#483b09" d="M 329.5,246.5 C 330.822,246.33 331.989,246.663 333,247.5C 334.205,251.616 335.705,255.616 337.5,259.5C 337.167,259.833 336.833,260.167 336.5,260.5C 334.514,257.157 331.514,255.824 327.5,256.5C 327.762,257.978 327.429,259.311 326.5,260.5C 326.167,260 325.833,259.5 325.5,259C 327.275,254.956 328.608,250.789 329.5,246.5 Z"/></g>
<g><path style="opacity:1" fill="#4a3d07" d="M 394.5,246.5 C 395.58,248.361 396.914,249.027 398.5,248.5C 398.026,250.272 396.86,251.939 395,253.5C 393.14,251.939 391.974,250.272 391.5,248.5C 391.938,247.494 392.604,247.494 393.5,248.5C 394.298,248.043 394.631,247.376 394.5,246.5 Z"/></g>
<g><path style="opacity:1" fill="#4a3d07" d="M 413.5,246.5 C 414.58,248.361 415.914,249.027 417.5,248.5C 417.026,250.272 415.86,251.939 414,253.5C 412.14,251.939 410.974,250.272 410.5,248.5C 410.938,247.494 411.604,247.494 412.5,248.5C 413.298,248.043 413.631,247.376 413.5,246.5 Z"/></g>
<g><path style="opacity:1" fill="#473a09" d="M 460.5,246.5 C 461.822,246.33 462.989,246.663 464,247.5C 465.8,252.005 466.967,256.338 467.5,260.5C 465.514,257.157 462.514,255.824 458.5,256.5C 458.762,257.978 458.429,259.311 457.5,260.5C 457.167,260 456.833,259.5 456.5,259C 458.275,254.956 459.608,250.789 460.5,246.5 Z"/></g>
<g><path style="opacity:1" fill="#4a3d07" d="M 541.5,246.5 C 542.58,248.361 543.914,249.027 545.5,248.5C 545.026,250.272 543.86,251.939 542,253.5C 540.14,251.939 538.974,250.272 538.5,248.5C 538.938,247.494 539.604,247.494 540.5,248.5C 541.298,248.043 541.631,247.376 541.5,246.5 Z"/></g>
<g><path style="opacity:1" fill="#594908" d="M 403.5,245.5 C 404.931,245.881 405.764,246.881 406,248.5C 406.718,247.549 407.551,247.383 408.5,248C 407.672,248.915 406.672,249.581 405.5,250C 406.672,250.419 407.672,251.085 408.5,252C 407.551,252.617 406.718,252.451 406,251.5C 405,255.5 404,255.5 403,251.5C 402.282,252.451 401.449,252.617 400.5,252C 401.328,251.085 402.328,250.419 403.5,250C 402.328,249.581 401.328,248.915 400.5,248C 401.449,247.383 402.282,247.549 403,248.5C 403.483,247.552 403.649,246.552 403.5,245.5 Z"/></g>
<g><path style="opacity:1" fill="#594908" d="M 531.5,245.5 C 532.931,245.881 533.764,246.881 534,248.5C 534.718,247.549 535.551,247.383 536.5,248C 535.672,248.915 534.672,249.581 533.5,250C 534.672,250.419 535.672,251.085 536.5,252C 535.551,252.617 534.718,252.451 534,251.5C 533,255.5 532,255.5 531,251.5C 530.282,252.451 529.449,252.617 528.5,252C 529.328,251.085 530.328,250.419 531.5,250C 530.328,249.581 529.328,248.915 528.5,248C 529.449,247.383 530.282,247.549 531,248.5C 531.483,247.552 531.649,246.552 531.5,245.5 Z"/></g>
<g><path style="opacity:1" fill="#594908" d="M 550.5,245.5 C 551.931,245.881 552.764,246.881 553,248.5C 553.718,247.549 554.551,247.383 555.5,248C 554.672,248.915 553.672,249.581 552.5,250C 553.672,250.419 554.672,251.085 555.5,252C 554.551,252.617 553.718,252.451 553,251.5C 552,255.5 551,255.5 550,251.5C 549.282,252.451 548.449,252.617 547.5,252C 548.328,251.085 549.328,250.419 550.5,250C 549.328,249.581 548.328,248.915 547.5,248C 548.449,247.383 549.282,247.549 550,248.5C 550.483,247.552 550.649,246.552 550.5,245.5 Z"/></g>
<g><path style="opacity:1" fill="#cea600" d="M 330.5,248.5 C 331.771,250.109 332.771,251.942 333.5,254C 332.207,254.49 330.873,254.657 329.5,254.5C 329.833,252.5 330.167,250.5 330.5,248.5 Z"/></g>
<g><path style="opacity:1" fill="#cea600" d="M 461.5,248.5 C 462.771,250.109 463.771,251.942 464.5,254C 463.207,254.49 461.873,254.657 460.5,254.5C 460.833,252.5 461.167,250.5 461.5,248.5 Z"/></g>
<g><path style="opacity:1" fill="#4f4008" d="M 451.5,246.5 C 455.969,249.771 456.636,253.771 453.5,258.5C 452.675,259.386 451.675,259.719 450.5,259.5C 448.585,259.784 446.919,259.451 445.5,258.5C 453.681,258.471 455.681,254.804 451.5,247.5C 451.5,247.167 451.5,246.833 451.5,246.5 Z"/></g>
<g><path style="opacity:1" fill="#483b09" d="M 353.5,256.5 C 353.5,255.833 353.5,255.167 353.5,254.5C 354.371,251.888 355.037,249.221 355.5,246.5C 356.822,246.33 357.989,246.663 359,247.5C 360.205,251.616 361.705,255.616 363.5,259.5C 363.167,259.833 362.833,260.167 362.5,260.5C 360.514,257.157 357.514,255.824 353.5,256.5 Z"/></g>
<g><path style="opacity:1" fill="#cea600" d="M 356.5,248.5 C 357.771,250.109 358.771,251.942 359.5,254C 358.207,254.49 356.873,254.657 355.5,254.5C 355.833,252.5 356.167,250.5 356.5,248.5 Z"/></g>
<g><path style="opacity:1" fill="#32290a" d="M 472.5,245.5 C 475.463,245.151 477.796,246.151 479.5,248.5C 479.167,248.833 478.833,249.167 478.5,249.5C 475.785,246.754 473.452,246.921 471.5,250C 473.839,251.718 476.339,253.218 479,254.5C 479.486,259.992 476.986,261.825 471.5,260C 469.74,259.035 469.406,257.868 470.5,256.5C 473.167,260.5 475.833,260.5 478.5,256.5C 476.465,254.805 474.132,253.472 471.5,252.5C 470.154,249.9 470.488,247.567 472.5,245.5 Z"/></g>
<g><path style="opacity:1" fill="#967907" d="M 350.5,251.5 C 351.29,252.609 351.79,253.942 352,255.5C 352.383,254.944 352.883,254.611 353.5,254.5C 353.5,255.167 353.5,255.833 353.5,256.5C 353.762,257.978 353.429,259.311 352.5,260.5C 351.828,259.051 351.161,257.718 350.5,256.5C 350.5,254.833 350.5,253.167 350.5,251.5 Z"/></g>
<g><path style="opacity:1" fill="#382e0a" d="M 350.5,251.5 C 350.5,253.167 350.5,254.833 350.5,256.5C 349.626,258.69 347.959,259.69 345.5,259.5C 343.735,260.461 341.735,260.795 339.5,260.5C 339.5,255.833 339.5,251.167 339.5,246.5C 342.187,246.336 344.854,246.503 347.5,247C 349.141,248.129 350.141,249.629 350.5,251.5 Z"/></g>
<g><path style="opacity:1" fill="#d9ae00" d="M 341.5,247.5 C 344.044,247.104 346.211,247.771 348,249.5C 348.667,252.167 348.667,254.833 348,257.5C 347.329,258.252 346.496,258.586 345.5,258.5C 344.167,258.5 342.833,258.5 341.5,258.5C 341.5,254.833 341.5,251.167 341.5,247.5 Z"/></g>
<g><path style="opacity:1" fill="#896e03" d="M 341.5,247.5 C 341.5,251.167 341.5,254.833 341.5,258.5C 342.833,258.5 344.167,258.5 345.5,258.5C 345.5,258.833 345.5,259.167 345.5,259.5C 343.833,259.5 342.167,259.5 340.5,259.5C 340.183,255.298 340.517,251.298 341.5,247.5 Z"/></g>
<g><path style="opacity:1" fill="#382e0a" d="M 488.5,259.5 C 486.735,260.461 484.735,260.795 482.5,260.5C 482.5,255.833 482.5,251.167 482.5,246.5C 492.745,245.57 495.745,249.736 491.5,259C 490.552,259.483 489.552,259.649 488.5,259.5 Z"/></g>
<g><path style="opacity:1" fill="#d9ae00" d="M 484.5,247.5 C 487.044,247.104 489.211,247.771 491,249.5C 491.667,252.167 491.667,254.833 491,257.5C 490.329,258.252 489.496,258.586 488.5,258.5C 487.167,258.5 485.833,258.5 484.5,258.5C 484.5,254.833 484.5,251.167 484.5,247.5 Z"/></g>
<g><path style="opacity:1" fill="#896e03" d="M 484.5,247.5 C 484.5,251.167 484.5,254.833 484.5,258.5C 485.833,258.5 487.167,258.5 488.5,258.5C 488.5,258.833 488.5,259.167 488.5,259.5C 486.833,259.5 485.167,259.5 483.5,259.5C 483.183,255.298 483.517,251.298 484.5,247.5 Z"/></g>
<g><path style="opacity:1" fill="#2f270b" d="M 315.5,251.5 C 318.192,252.009 320.692,253.009 323,254.5C 324.109,258.486 322.609,260.486 318.5,260.5C 316.626,260.61 315.126,259.944 314,258.5C 313.312,257.668 313.479,257.002 314.5,256.5C 317.102,260.113 319.769,260.279 322.5,257C 320.495,254.726 318.162,252.892 315.5,251.5 Z"/></g>
<g><path style="opacity:1" fill="#a78605" d="M 443.5,277.5 C 442.5,277.5 441.5,277.5 440.5,277.5C 439.739,276.609 438.739,275.942 437.5,275.5C 436.537,275.97 436.537,276.637 437.5,277.5C 436.735,278.66 435.735,279.66 434.5,280.5C 433.361,278.736 432.361,277.07 431.5,275.5C 432.191,273.978 433.358,272.978 435,272.5C 437.333,273.833 439.667,273.833 442,272.5C 445.598,273.629 446.098,275.296 443.5,277.5 Z"/></g>
<g><path style="opacity:1" fill="#9a7c03" d="M 475.5,272.5 C 476.765,273.514 477.431,275.014 477.5,277C 477.167,278.5 476.833,280 476.5,281.5C 475.516,278.572 475.183,275.572 475.5,272.5 Z"/></g>
<g><path style="opacity:1" fill="#735e04" d="M 494.5,272.5 C 495.638,275.304 495.805,278.304 495,281.5C 494.667,279.167 494.333,276.833 494,274.5C 493.346,275.696 492.846,275.696 492.5,274.5C 493.243,273.818 493.909,273.151 494.5,272.5 Z"/></g>
<g><path style="opacity:1" fill="#886e03" d="M 452.5,272.5 C 453.043,272.56 453.376,272.893 453.5,273.5C 452.392,276.91 451.226,280.243 450,283.5C 449.892,279.65 450.725,275.983 452.5,272.5 Z"/></g>
<g><path style="opacity:1" fill="#403508" d="M 367.5,273.5 C 368.209,272.596 369.209,272.263 370.5,272.5C 370.5,273.833 370.5,275.167 370.5,276.5C 375.833,276.833 375.833,277.167 370.5,277.5C 370.5,278.5 370.5,279.5 370.5,280.5C 375.5,281.003 375.167,281.336 369.5,281.5C 370.036,278.302 369.369,275.635 367.5,273.5 Z"/></g>
<g><path style="opacity:1" fill="#403508" d="M 384.5,273.5 C 385.209,272.596 386.209,272.263 387.5,272.5C 387.5,273.833 387.5,275.167 387.5,276.5C 392.833,276.833 392.833,277.167 387.5,277.5C 387.5,278.5 387.5,279.5 387.5,280.5C 392.5,281.003 392.167,281.336 386.5,281.5C 387.036,278.302 386.369,275.635 384.5,273.5 Z"/></g>
<g><path style="opacity:1" fill="#655205" d="M 431.5,275.5 C 432.361,277.07 433.361,278.736 434.5,280.5C 435.735,279.66 436.735,278.66 437.5,277.5C 437.592,281.071 435.926,282.238 432.5,281C 431.594,279.301 431.261,277.467 431.5,275.5 Z"/></g>
<g><path style="opacity:1" fill="#645205" d="M 478.5,276.5 C 480.363,281.684 482.196,281.684 484,276.5C 485.167,280.667 483.667,282.167 479.5,281C 478.62,279.644 478.286,278.144 478.5,276.5 Z"/></g>
<g><path style="opacity:1" fill="#8e7306" d="M 418.5,272.5 C 419.822,272.33 420.989,272.663 422,273.5C 422.311,275.556 422.811,277.556 423.5,279.5C 421.295,282.053 418.962,282.053 416.5,279.5C 416.977,278.522 417.643,277.689 418.5,277C 417.272,275.51 417.272,274.01 418.5,272.5 Z"/></g>
<g><path style="opacity:1" fill="#766004" d="M 424.5,273.5 C 426.364,272.207 428.364,272.207 430.5,273.5C 429.253,276.329 427.753,278.995 426,281.5C 426.203,279.063 427.037,276.729 428.5,274.5C 427.311,273.571 425.978,273.238 424.5,273.5 Z"/></g>
<g><path style="opacity:1" fill="#786105" d="M 462.5,280.5 C 459.971,281.905 458.304,281.072 457.5,278C 458.385,274.822 460.218,273.989 463,275.5C 463.78,277.387 463.613,279.054 462.5,280.5 Z"/></g>
<g><path style="opacity:1" fill="#d6ac00" d="M 462.5,280.5 C 461.5,280.5 460.5,280.5 459.5,280.5C 460.5,273.833 461.5,273.833 462.5,280.5 Z"/></g>
<g><path style="opacity:1" fill="#635106" d="M 381.5,272.5 C 382.043,272.56 382.376,272.893 382.5,273.5C 381.352,276.289 380.019,278.956 378.5,281.5C 378.702,280.194 378.368,278.694 377.5,277C 377.944,275.238 378.444,275.405 379,277.5C 379.847,275.807 380.68,274.14 381.5,272.5 Z"/></g>
<g><path style="opacity:1" fill="#715c05" d="M 440.5,277.5 C 440.5,278.5 440.5,279.5 440.5,280.5C 441.5,280.5 442.5,280.5 443.5,280.5C 443.5,279.5 443.5,278.5 443.5,277.5C 445.443,278.078 445.777,279.078 444.5,280.5C 442.955,281.452 441.288,281.785 439.5,281.5C 439.232,279.901 439.566,278.568 440.5,277.5 Z"/></g>
<g><path style="opacity:1" fill="#d5ab00" d="M 440.5,277.5 C 441.5,277.5 442.5,277.5 443.5,277.5C 443.5,278.5 443.5,279.5 443.5,280.5C 442.5,280.5 441.5,280.5 440.5,280.5C 440.5,279.5 440.5,278.5 440.5,277.5 Z"/></g>
<g><path style="opacity:1" fill="#786105" d="M 469.5,280.5 C 468.387,279.054 468.22,277.387 469,275.5C 473.393,274.396 474.893,276.062 473.5,280.5C 472.042,281.782 470.708,281.782 469.5,280.5 Z"/></g>
<g><path style="opacity:1" fill="#d6ac00" d="M 469.5,280.5 C 470.5,273.833 471.5,273.833 472.5,280.5C 471.5,280.5 470.5,280.5 469.5,280.5 Z"/></g>
<g><path style="opacity:1" fill="#715b06" d="M 405.5,277.5 C 407.225,277.843 407.725,278.843 407,280.5C 405.612,281.554 404.112,281.72 402.5,281C 403.448,280.517 404.448,280.351 405.5,280.5C 405.5,279.5 405.5,278.5 405.5,277.5 Z"/></g>
<g><path style="opacity:1" fill="#967904" d="M 408.5,273.5 C 409.919,272.549 411.585,272.216 413.5,272.5C 413.874,275.972 412.874,278.972 410.5,281.5C 410.167,281.167 409.833,280.833 409.5,280.5C 410.5,278.5 411.5,276.5 412.5,274.5C 411.311,273.571 409.978,273.238 408.5,273.5 Z"/></g>
<g><path style="opacity:1" fill="#372e0b" d="M 90.5,359.5 C 93.5993,359.092 95.9326,360.259 97.5,363C 95.0984,361.954 92.4317,361.454 89.5,361.5C 89.3433,362.873 89.51,364.207 90,365.5C 92.1748,366.255 94.3415,367.088 96.5,368C 97.9348,370.267 97.6015,372.267 95.5,374C 93.1009,374.711 90.7676,374.544 88.5,373.5C 87.2853,369.721 87.9519,369.554 90.5,373C 94.4918,374.177 96.1584,372.677 95.5,368.5C 90.1003,368.929 87.6003,366.596 88,361.5C 88.9947,360.934 89.828,360.267 90.5,359.5 Z"/></g>
<g><path style="opacity:1" fill="#41360a" d="M 143.5,361.5 C 140.675,361.162 138.508,362.162 137,364.5C 136.82,360.815 138.653,359.315 142.5,360C 143.056,360.383 143.389,360.883 143.5,361.5 Z"/></g>
<g><path style="opacity:1" fill="#4e4007" d="M 110.5,363.5 C 112.153,364.605 113.82,364.771 115.5,364C 114.975,364.692 114.308,365.192 113.5,365.5C 112.833,368.5 112.167,371.5 111.5,374.5C 110.511,370.893 110.177,367.226 110.5,363.5 Z"/></g>
<g><path style="opacity:1" fill="#4d3f09" d="M 117.5,363.5 C 118.497,363.47 119.164,363.97 119.5,365C 120.137,367.245 120.97,369.412 122,371.5C 123.072,368.782 124.238,366.115 125.5,363.5C 125.833,363.833 126.167,364.167 126.5,364.5C 124.905,367.68 123.905,371.013 123.5,374.5C 122.5,374.5 121.5,374.5 120.5,374.5C 119.703,370.777 118.703,367.11 117.5,363.5 Z"/></g>
<g><path style="opacity:1" fill="#2c240b" d="M 105.5,364.5 C 108.084,365.048 109.084,366.715 108.5,369.5C 105.753,369.187 103.086,369.52 100.5,370.5C 102.384,374.017 104.717,374.351 107.5,371.5C 108.604,372.631 108.271,373.465 106.5,374C 99.9986,374.812 97.8319,371.979 100,365.5C 101.678,363.447 103.511,363.113 105.5,364.5 Z"/></g>
<g><path style="opacity:1" fill="#bd9801" d="M 105.5,364.5 C 106.234,365.708 106.567,367.041 106.5,368.5C 104.396,368.799 102.396,368.466 100.5,367.5C 101.421,365.244 103.088,364.244 105.5,364.5 Z"/></g>
<g><path style="opacity:1" fill="#524308" d="M 143.5,361.5 C 145.273,362.314 145.773,363.648 145,365.5C 143.542,367.96 141.709,370.127 139.5,372C 141.577,372.192 143.577,372.692 145.5,373.5C 145.376,374.107 145.043,374.44 144.5,374.5C 142.285,373.732 139.952,373.065 137.5,372.5C 138.793,370.704 140.293,369.037 142,367.5C 143.128,365.655 143.628,363.655 143.5,361.5 Z"/></g>
<g><path style="opacity:1" fill="#131008" d="M 137.5,372.5 C 139.952,373.065 142.285,373.732 144.5,374.5C 141.753,374.813 139.086,374.48 136.5,373.5C 136.624,372.893 136.957,372.56 137.5,372.5 Z"/></g>
<g><path style="opacity:1" fill="#337a2b" d="M 241.5,382.5 C 368.5,382.333 495.5,382.5 622.5,383C 623,383.5 623.5,384 624,384.5C 624.667,405.167 624.667,425.833 624,446.5C 623.5,447 623,447.5 622.5,448C 495.5,448.667 368.5,448.667 241.5,448C 241,447.5 240.5,447 240,446.5C 239.333,425.833 239.333,405.167 240,384.5C 240.717,383.956 241.217,383.289 241.5,382.5 Z"/></g>
<g><path style="opacity:1" fill="#705b05" d="M 79.5,386.5 C 82.0217,386.128 84.0217,386.961 85.5,389C 83.9532,389.333 82.6199,388.833 81.5,387.5C 77.2854,391.044 77.952,393.544 83.5,395C 78.5036,395.664 76.6703,393.498 78,388.5C 78.7172,387.956 79.2172,387.289 79.5,386.5 Z"/></g>
<g><path style="opacity:1" fill="#715b05" d="M 86.5,386.5 C 91.1225,385.408 92.9558,387.075 92,391.5C 90.9887,392.337 89.8221,392.67 88.5,392.5C 88.719,393.675 88.3857,394.675 87.5,395.5C 86.5159,392.572 86.1826,389.572 86.5,386.5 Z"/></g>
<g><path style="opacity:1" fill="#655305" d="M 94.5,386.5 C 95.3138,388.631 95.8138,390.964 96,393.5C 97.3333,394.833 98.6667,394.833 100,393.5C 100.333,391.167 100.667,388.833 101,386.5C 101.777,389.429 101.61,392.263 100.5,395C 98.5594,395.743 96.7261,395.576 95,394.5C 94.5026,391.854 94.3359,389.187 94.5,386.5 Z"/></g>
<g><path style="opacity:1" fill="#d6ac00" d="M 88.5,387.5 C 91.8606,388.203 92.1939,389.537 89.5,391.5C 88.5713,390.311 88.238,388.978 88.5,387.5 Z"/></g>
<g><path style="opacity:1" fill="#886e05" d="M 133.5,387.5 C 135.265,386.539 137.265,386.205 139.5,386.5C 139.753,388.827 139.086,390.827 137.5,392.5C 136.653,390.939 136.986,389.439 138.5,388C 136.866,387.506 135.199,387.34 133.5,387.5 Z"/></g>
<g><path style="opacity:1" fill="#1b3c17" d="M 396.5,388.5 C 397.809,390.571 398.475,393.071 398.5,396C 398.167,398.5 397.833,401 397.5,403.5C 396.506,398.544 396.173,393.544 396.5,388.5 Z"/></g>
<g><path style="opacity:1" fill="#1e411a" d="M 412.5,388.5 C 413.809,390.571 414.475,393.071 414.5,396C 414.167,398.5 413.833,401 413.5,403.5C 412.506,398.544 412.173,393.544 412.5,388.5 Z"/></g>
<g><path style="opacity:1" fill="#1b3c17" d="M 477.5,388.5 C 478.809,390.571 479.475,393.071 479.5,396C 479.167,398.5 478.833,401 478.5,403.5C 477.506,398.544 477.173,393.544 477.5,388.5 Z"/></g>
<g><path style="opacity:1" fill="#715c07" d="M 114.5,387.5 C 115.497,387.47 116.164,387.97 116.5,389C 116.026,390.704 115.859,392.538 116,394.5C 114.612,395.554 113.112,395.72 111.5,395C 112.448,394.517 113.448,394.351 114.5,394.5C 114.64,392.876 113.973,391.71 112.5,391C 113.973,390.29 114.64,389.124 114.5,387.5 Z"/></g>
<g><path style="opacity:1" fill="#766004" d="M 117.5,387.5 C 119.364,386.207 121.364,386.207 123.5,387.5C 122.253,390.329 120.753,392.995 119,395.5C 119.203,393.063 120.037,390.729 121.5,388.5C 120.311,387.571 118.978,387.238 117.5,387.5 Z"/></g>
<g><path style="opacity:1" fill="#876d05" d="M 128.5,386.5 C 130.635,386.147 131.968,386.98 132.5,389C 132.026,390.704 131.859,392.538 132,394.5C 129.52,396.09 127.687,395.59 126.5,393C 127.833,391.667 127.833,390.333 126.5,389C 127.056,387.989 127.722,387.156 128.5,386.5 Z"/></g>
<g><path style="opacity:1" fill="#9b7e05" d="M 145.5,394.5 C 142.683,395.917 141.017,394.917 140.5,391.5C 141.349,386.274 143.849,385.274 148,388.5C 149.133,386.789 150.633,386.289 152.5,387C 156.388,394.95 154.055,397.45 145.5,394.5 Z"/></g>
<g><path style="opacity:1" fill="#d4ab00" d="M 145.5,394.5 C 144.5,394.5 143.5,394.5 142.5,394.5C 143.5,389.167 144.5,389.167 145.5,394.5 Z"/></g>
<g><path style="opacity:1" fill="#193316" d="M 432.5,392.5 C 435.541,392.454 438.541,392.954 441.5,394C 444.347,401.131 442.181,403.964 435,402.5C 434.798,404.256 434.298,405.922 433.5,407.5C 432.506,402.544 432.173,397.544 432.5,392.5 Z"/></g>
<g><path style="opacity:1" fill="#142612" d="M 455.5,392.5 C 457.776,392.668 460.109,393.001 462.5,393.5C 463.657,396.784 463.824,400.118 463,403.5C 462.502,400.518 462.335,397.518 462.5,394.5C 460.533,394.261 458.699,394.594 457,395.5C 456.667,398.167 456.333,400.833 456,403.5C 455.501,399.848 455.335,396.182 455.5,392.5 Z"/></g>
<g><path style="opacity:1" fill="#317629" d="M 435.5,394.5 C 437.167,394.5 438.833,394.5 440.5,394.5C 440.663,396.857 440.497,399.19 440,401.5C 438.062,402.86 436.396,402.527 435,400.5C 434.322,398.402 434.489,396.402 435.5,394.5 Z"/></g>
<g><path style="opacity:1" fill="#172c14" d="M 403.5,392.5 C 410.575,393.327 412.242,396.827 408.5,403C 402.143,404.481 399.643,401.981 401,395.5C 402.045,394.627 402.878,393.627 403.5,392.5 Z"/></g>
<g><path style="opacity:1" fill="#317629" d="M 404.5,393.5 C 408.254,394.828 409.421,397.494 408,401.5C 404.884,403.024 403.05,402.024 402.5,398.5C 402.437,396.486 403.103,394.819 404.5,393.5 Z"/></g>
<g><path style="opacity:1" fill="#121e10" d="M 449.5,402.5 C 445.014,404.177 443.681,402.677 445.5,398C 447.134,397.506 448.801,397.34 450.5,397.5C 450.256,393.211 448.589,392.544 445.5,395.5C 445.167,395.167 444.833,394.833 444.5,394.5C 446.789,392.408 449.289,392.074 452,393.5C 452.667,396.833 452.667,400.167 452,403.5C 451.329,402.748 450.496,402.414 449.5,402.5 Z"/></g>
<g><path style="opacity:1" fill="#2f7128" d="M 449.5,402.5 C 446.834,402.934 445.667,401.934 446,399.5C 447.814,398.24 449.647,398.24 451.5,399.5C 450.807,400.518 450.141,401.518 449.5,402.5 Z"/></g>
<g><path style="opacity:1" fill="#121c0f" d="M 468.5,392.5 C 473.017,392.02 475.35,394.02 475.5,398.5C 472.753,398.187 470.086,398.52 467.5,399.5C 469.26,402.926 471.426,403.259 474,400.5C 474.617,401.449 474.451,402.282 473.5,403C 468.92,404.415 466.586,402.749 466.5,398C 466.395,395.822 467.061,393.988 468.5,392.5 Z"/></g>
<g><path style="opacity:1" fill="#2e6e27" d="M 469.5,393.5 C 472.179,393.525 473.512,394.858 473.5,397.5C 471.396,397.799 469.396,397.466 467.5,396.5C 468.193,395.482 468.859,394.482 469.5,393.5 Z"/></g>
<g><path style="opacity:1" fill="#162a13" d="M 391.5,393.5 C 392.496,393.414 393.329,393.748 394,394.5C 395.705,402.479 393.038,404.813 386,401.5C 385.333,399.167 385.333,396.833 386,394.5C 387.678,392.447 389.511,392.113 391.5,393.5 Z"/></g>
<g><path style="opacity:1" fill="#317529" d="M 391.5,393.5 C 392.555,396.073 392.722,398.739 392,401.5C 388.718,402.911 386.884,401.745 386.5,398C 386.748,394.918 388.415,393.418 391.5,393.5 Z"/></g>
<g><path style="opacity:1" fill="#121f10" d="M 422.5,393.5 C 423.496,393.414 424.329,393.748 425,394.5C 426.705,402.479 424.038,404.813 417,401.5C 416.333,399.167 416.333,396.833 417,394.5C 418.678,392.447 420.511,392.113 422.5,393.5 Z"/></g>
<g><path style="opacity:1" fill="#2f7228" d="M 422.5,393.5 C 425.533,397.164 425.033,400.164 421,402.5C 417.034,400.335 416.534,397.502 419.5,394C 420.448,393.517 421.448,393.351 422.5,393.5 Z"/></g>
<g><path style="opacity:1" fill="#1d3e19" d="M 364.5,414.5 C 366.141,416.203 367.141,418.37 367.5,421C 366.953,421.925 366.287,422.758 365.5,423.5C 364.281,422.354 362.948,421.354 361.5,420.5C 362.557,420.094 363.891,420.094 365.5,420.5C 365.64,418.876 364.973,417.71 363.5,417C 364.252,416.329 364.586,415.496 364.5,414.5 Z"/></g>
<g><path style="opacity:1" fill="#1d4019" d="M 381.5,414.5 C 384.022,414.128 386.022,414.961 387.5,417C 385.953,417.333 384.62,416.833 383.5,415.5C 379.285,419.044 379.952,421.544 385.5,423C 380.504,423.664 378.67,421.498 380,416.5C 380.717,415.956 381.217,415.289 381.5,414.5 Z"/></g>
<g><path style="opacity:1" fill="#1d4119" d="M 394.5,422.5 C 389.655,423.817 387.822,421.817 389,416.5C 394.519,413.334 396.852,415.001 396,421.5C 395.617,422.056 395.117,422.389 394.5,422.5 Z"/></g>
<g><path style="opacity:1" fill="#214a1c" d="M 300.5,414.5 C 302.484,414.383 304.15,415.05 305.5,416.5C 303.674,416.92 301.674,416.92 299.5,416.5C 298.678,422.209 300.511,423.543 305,420.5C 305.456,422.713 304.456,423.713 302,423.5C 296.78,421.33 296.28,418.33 300.5,414.5 Z"/></g>
<g><path style="opacity:1" fill="#31772a" d="M 394.5,422.5 C 388.924,421.445 388.257,419.111 392.5,415.5C 395.598,417.13 396.265,419.463 394.5,422.5 Z"/></g>
<g><path style="opacity:1" fill="#255620" d="M 355.5,414.5 C 357.346,414.222 358.68,414.889 359.5,416.5C 359.245,418.343 359.078,420.343 359,422.5C 355.553,424.353 353.72,423.353 353.5,419.5C 353.437,417.486 354.103,415.819 355.5,414.5 Z"/></g>
<g><path style="opacity:1" fill="#1c3c18" d="M 441.5,417.5 C 442.808,424.105 444.308,424.105 446,417.5C 446.495,419.473 446.662,421.473 446.5,423.5C 444.833,423.5 443.167,423.5 441.5,423.5C 441.5,421.5 441.5,419.5 441.5,417.5 Z"/></g>
<g><path style="opacity:1" fill="#224f1e" d="M 534.5,416.5 C 537.359,416.801 538.693,418.467 538.5,421.5C 538.569,425.78 536.902,426.947 533.5,425C 534.938,424.781 536.271,424.281 537.5,423.5C 536.418,423.251 535.085,423.085 533.5,423C 532.144,420.586 532.478,418.419 534.5,416.5 Z"/></g>
<g><path style="opacity:1" fill="#255620" d="M 400.5,414.5 C 402.677,414.586 404.677,415.253 406.5,416.5C 408.737,414.183 411.07,414.017 413.5,416C 407.694,415.637 407.361,416.804 412.5,419.5C 413.998,422.133 413.165,423.466 410,423.5C 408.289,423.561 406.956,422.894 406,421.5C 401.946,424.691 399.113,423.858 397.5,419C 397.957,417.06 398.957,415.56 400.5,414.5 Z"/></g>
<g><path style="opacity:1" fill="#327a2b" d="M 399.5,416.5 C 401.167,416.5 402.833,416.5 404.5,416.5C 404.66,418.199 404.494,419.866 404,421.5C 402.667,422.833 401.333,422.833 400,421.5C 399.506,419.866 399.34,418.199 399.5,416.5 Z"/></g>
<g><path style="opacity:1" fill="#24531f" d="M 490.5,416.5 C 493.672,416.928 496.672,417.095 499.5,417C 500.769,419.139 500.769,421.305 499.5,423.5C 498.052,416.922 496.885,416.922 496,423.5C 494.749,415.567 493.249,415.567 491.5,423.5C 490.526,421.257 490.192,418.924 490.5,416.5 Z"/></g>
<g><path style="opacity:1" fill="#285e22" d="M 597.5,414.5 C 598.833,414.5 600.167,414.5 601.5,414.5C 601.5,415.833 601.5,417.167 601.5,418.5C 599.5,418.167 597.5,417.833 595.5,417.5C 595.746,419.78 595.746,421.78 595.5,423.5C 594.167,422.167 592.833,422.167 591.5,423.5C 590.808,422.975 590.308,422.308 590,421.5C 589.311,422.357 588.478,423.023 587.5,423.5C 585.657,423.245 583.657,423.078 581.5,423C 580.424,421.274 580.257,419.441 581,417.5C 583.984,417.484 586.984,417.484 590,417.5C 591.763,417.025 593.43,416.358 595,415.5C 596.461,416.883 597.294,416.549 597.5,414.5 Z"/></g>
<g><path style="opacity:1" fill="#1b3b18" d="M 278.5,416.5 C 278.56,415.957 278.893,415.624 279.5,415.5C 280.647,417.765 280.814,420.098 280,422.5C 274.152,424.653 272.152,422.653 274,416.5C 274.333,418.167 274.667,419.833 275,421.5C 276.333,422.833 277.667,422.833 279,421.5C 279.78,419.613 279.613,417.946 278.5,416.5 Z"/></g>
<g><path style="opacity:1" fill="#1f471b" d="M 284.5,414.5 C 286.753,416.817 288.42,419.65 289.5,423C 288.17,422.923 286.836,422.423 285.5,421.5C 284.164,422.423 282.83,422.923 281.5,423C 282.798,420.273 283.798,417.44 284.5,414.5 Z"/></g>
<g><path style="opacity:1" fill="#20471b" d="M 290.5,414.5 C 292.199,414.34 293.866,414.506 295.5,415C 296.059,415.725 296.392,416.558 296.5,417.5C 295.392,419.518 295.225,421.518 296,423.5C 295.092,421.561 293.592,420.561 291.5,420.5C 290.223,421.317 289.89,419.317 290.5,414.5 Z"/></g>
<g><path style="opacity:1" fill="#20471b" d="M 306.5,414.5 C 308.176,415.183 308.843,416.517 308.5,418.5C 309.833,418.5 311.167,418.5 312.5,418.5C 313.258,413.248 313.925,413.415 314.5,419C 313.925,424.585 313.258,424.752 312.5,419.5C 311.167,419.5 309.833,419.5 308.5,419.5C 308.762,420.978 308.429,422.311 307.5,423.5C 306.516,420.572 306.183,417.572 306.5,414.5 Z"/></g>
<g><path style="opacity:1" fill="#24511e" d="M 350.5,414.5 C 351.477,417.287 351.81,420.287 351.5,423.5C 345.852,423.689 344.518,421.522 347.5,417C 348.449,416.383 349.282,416.549 350,417.5C 350.483,416.552 350.649,415.552 350.5,414.5 Z"/></g>
<g><path style="opacity:1" fill="#1f441b" d="M 485.5,416.5 C 486.822,416.33 487.989,416.663 489,417.5C 489.495,419.473 489.662,421.473 489.5,423.5C 487.833,423.5 486.167,423.5 484.5,423.5C 484.22,420.612 485.553,419.112 488.5,419C 487.428,417.716 486.095,417.383 484.5,418C 485.056,417.617 485.389,417.117 485.5,416.5 Z"/></g>
<g><path style="opacity:1" fill="#24531f" d="M 541.5,416.5 C 545.473,417.075 546.473,419.242 544.5,423C 539.4,422.887 538.4,420.721 541.5,416.5 Z"/></g>
<g><path style="opacity:1" fill="#1a3717" d="M 264.5,416.5 C 265.224,418.218 265.891,420.052 266.5,422C 268.074,422.699 269.407,422.365 270.5,421C 268.068,419.913 268.402,419.413 271.5,419.5C 271.22,423.225 269.22,424.392 265.5,423C 264.577,420.959 264.244,418.792 264.5,416.5 Z"/></g>
<g><path style="opacity:1" fill="#20471b" d="M 330.5,416.5 C 331.583,416.539 332.583,416.873 333.5,417.5C 334.466,419.396 334.799,421.396 334.5,423.5C 332.533,423.739 330.699,423.406 329,422.5C 328.729,420.193 329.895,419.026 332.5,419C 331.167,418.667 329.833,418.333 328.5,418C 329.416,417.722 330.082,417.222 330.5,416.5 Z"/></g>
<g><path style="opacity:1" fill="#1a3817" d="M 501.5,418.5 C 503.339,419.752 505.172,419.752 507,418.5C 507.167,418.833 507.333,419.167 507.5,419.5C 501.619,420.159 501.286,421.326 506.5,423C 502.508,424.177 500.842,422.677 501.5,418.5 Z"/></g>
<g><path style="opacity:1" fill="#265720" d="M 426.5,433.5 C 429.272,433.627 430.605,435.127 430.5,438C 430.825,442.157 429.158,443.324 425.5,441.5C 424.025,438.557 424.358,435.891 426.5,433.5 Z"/></g>
<g><path style="opacity:1" fill="#23511e" d="M 494.5,433.5 C 496.084,434.382 497.751,435.215 499.5,436C 501.825,441.154 500.158,443.321 494.5,442.5C 494.5,439.5 494.5,436.5 494.5,433.5 Z"/></g>
<g><path style="opacity:1" fill="#1a3717" d="M 435.5,433.5 C 436.765,434.514 437.431,436.014 437.5,438C 437.333,439.5 437.167,441 437,442.5C 436.971,439.633 436.138,437.133 434.5,435C 435.056,434.617 435.389,434.117 435.5,433.5 Z"/></g>
<g><path style="opacity:1" fill="#1f441b" d="M 454.5,433.5 C 455.317,435.831 455.984,438.331 456.5,441C 456.167,441.5 455.833,442 455.5,442.5C 454.107,441.137 452.441,440.304 450.5,440C 451.719,437.722 453.052,435.555 454.5,433.5 Z"/></g>
<g><path style="opacity:1" fill="#255620" d="M 282.5,435.5 C 284.39,435.297 285.89,435.963 287,437.5C 287.674,436.422 288.674,435.755 290,435.5C 301.162,437.621 300.995,438.288 289.5,437.5C 289.785,439.288 289.452,440.955 288.5,442.5C 287.614,441.675 287.281,440.675 287.5,439.5C 285.712,439.215 284.045,439.548 282.5,440.5C 283.651,441.731 284.817,441.731 286,440.5C 286.167,440.833 286.333,441.167 286.5,441.5C 280.701,442.576 279.368,440.576 282.5,435.5 Z"/></g>
<g><path style="opacity:1" fill="#204a1c" d="M 526.5,435.5 C 527.922,435.709 529.255,436.209 530.5,437C 528.381,437.098 526.714,437.931 525.5,439.5C 525.833,440.5 526.5,441.167 527.5,441.5C 528.451,440.674 529.451,440.508 530.5,441C 528.798,442.718 526.965,442.885 525,441.5C 524.252,439.16 524.752,437.16 526.5,435.5 Z"/></g>
<g><path style="opacity:1" fill="#24541f" d="M 256.5,435.5 C 259.672,435.928 262.672,436.095 265.5,436C 266.769,438.139 266.769,440.305 265.5,442.5C 264.167,435.833 262.833,435.833 261.5,442.5C 260.167,435.833 258.833,435.833 257.5,442.5C 256.526,440.257 256.192,437.924 256.5,435.5 Z"/></g>
<g><path style="opacity:1" fill="#24531f" d="M 307.5,435.5 C 308.847,436.171 310.014,436.171 311,435.5C 311.821,438.554 311.655,441.554 310.5,444.5C 308.776,445.661 307.11,445.495 305.5,444C 310.498,443.572 310.665,442.739 306,441.5C 305.257,439.126 305.757,437.126 307.5,435.5 Z"/></g>
<g><path style="opacity:1" fill="#265820" d="M 415.5,433.5 C 419.976,433.822 421.476,436.156 420,440.5C 418.084,443.033 416.084,443.033 414,440.5C 413.167,437.829 413.667,435.496 415.5,433.5 Z"/></g>
<g><path style="opacity:1" fill="#2a6224" d="M 588.5,435.5 C 591.2,436.516 593.866,436.516 596.5,435.5C 597.5,436 598.5,436.5 599.5,437C 598.788,438.425 598.621,439.925 599,441.5C 595.541,441.546 592.041,441.713 588.5,442C 587.232,439.837 587.232,437.67 588.5,435.5 Z"/></g>
<g><path style="opacity:1" fill="#20491c" d="M 244.5,435.5 C 246.103,435.312 247.437,435.812 248.5,437C 245.172,436.167 243.839,437.667 244.5,441.5C 246.109,441.094 247.443,441.094 248.5,441.5C 242.701,442.576 241.368,440.576 244.5,435.5 Z"/></g>
<g><path style="opacity:1" fill="#20491c" d="M 314.5,435.5 C 316.103,435.312 317.437,435.812 318.5,437C 315.172,436.167 313.839,437.667 314.5,441.5C 316.109,441.094 317.443,441.094 318.5,441.5C 312.701,442.576 311.368,440.576 314.5,435.5 Z"/></g>
<g><path style="opacity:1" fill="#152b13" d="M 372.5,437.5 C 374.086,438.148 375.753,438.648 377.5,439C 375.598,439.199 374.098,440.033 373,441.5C 372.51,440.207 372.343,438.873 372.5,437.5 Z"/></g>
<g><path style="opacity:1" fill="#20481c" d="M 467.5,433.5 C 471.161,433.35 472.161,434.85 470.5,438C 469.552,438.483 468.552,438.649 467.5,438.5C 467.5,439.5 467.5,440.5 467.5,441.5C 468.552,441.351 469.552,441.517 470.5,442C 468.888,442.72 467.388,442.554 466,441.5C 465.855,438.739 466.355,436.073 467.5,433.5 Z"/></g>
<g><path style="opacity:1" fill="#265921" d="M 483.5,433.5 C 484.5,433.5 485.5,433.5 486.5,433.5C 486.343,434.873 486.51,436.207 487,437.5C 489.864,434.674 492.031,435.174 493.5,439C 492.542,442.312 490.542,443.145 487.5,441.5C 486.719,442.737 485.719,443.737 484.5,444.5C 483.511,440.893 483.177,437.226 483.5,433.5 Z"/></g>
<g><path style="opacity:1" fill="#255620" d="M 537.5,435.5 C 539.39,435.297 540.89,435.963 542,437.5C 543.153,435.503 544.653,435.17 546.5,436.5C 545.173,438.311 544.173,440.311 543.5,442.5C 541.185,442.314 538.851,441.98 536.5,441.5C 535.15,439.217 535.483,437.217 537.5,435.5 Z"/></g>
<g><path style="opacity:1" fill="#1f451b" d="M 569.5,435.5 C 572.5,435.167 573.833,436.5 573.5,439.5C 572.022,439.238 570.689,439.571 569.5,440.5C 570.98,441.113 572.313,441.446 573.5,441.5C 567.701,442.576 566.368,440.576 569.5,435.5 Z"/></g>
<g><path style="opacity:1" fill="#23511e" d="M 269.5,435.5 C 272.857,436.121 274.024,438.121 273,441.5C 271.004,441.996 269.337,442.996 268,444.5C 267.094,441.156 267.594,438.156 269.5,435.5 Z"/></g>
<g><path style="opacity:1" fill="#1d3b19" d="M 399.5,434.5 C 402.994,433.165 404.16,434.499 403,438.5C 399.668,440.443 399.834,441.61 403.5,442C 401.741,442.798 400.074,442.631 398.5,441.5C 399.833,439.833 401.167,438.167 402.5,436.5C 401.995,435.081 400.995,434.415 399.5,434.5 Z"/></g>
<g><path style="opacity:1" fill="#20481b" d="M 605.5,433.5 C 607.011,434.958 608.011,436.791 608.5,439C 608.012,441.176 607.012,443.009 605.5,444.5C 606.215,441.074 606.215,437.408 605.5,433.5 Z"/></g>
<g><path style="opacity:1" fill="#23511e" d="M 251.5,435.5 C 255.184,436.372 256.184,438.539 254.5,442C 249.148,442.175 248.148,440.009 251.5,435.5 Z"/></g>
<g><path style="opacity:1" fill="#20471b" d="M 353.5,435.5 C 354.583,435.539 355.583,435.873 356.5,436.5C 357.466,438.396 357.799,440.396 357.5,442.5C 355.533,442.739 353.699,442.406 352,441.5C 351.729,439.193 352.895,438.026 355.5,438C 354.167,437.667 352.833,437.333 351.5,437C 352.416,436.722 353.082,436.222 353.5,435.5 Z"/></g>
<g><path style="opacity:1" fill="#20471b" d="M 552.5,435.5 C 553.583,435.539 554.583,435.873 555.5,436.5C 556.466,438.396 556.799,440.396 556.5,442.5C 554.533,442.739 552.699,442.406 551,441.5C 550.729,439.193 551.895,438.026 554.5,438C 553.167,437.667 551.833,437.333 550.5,437C 551.416,436.722 552.082,436.222 552.5,435.5 Z"/></g>
<g><path style="opacity:1" fill="#183315" d="M 365.5,437.5 C 366.249,438.531 366.915,439.698 367.5,441C 368.738,440.923 369.738,441.089 370.5,441.5C 366.566,443.242 364.899,441.909 365.5,437.5 Z"/></g>
<g><path style="opacity:1" fill="#131c10" d="M 459.5,440.5 C 461.086,441.148 462.753,441.648 464.5,442C 462.5,442.667 460.5,442.667 458.5,442C 459.056,441.617 459.389,441.117 459.5,440.5 Z"/></g>
<g><path style="opacity:1" fill="#747575" d="M 240.5,458.5 C 368.167,458.333 495.834,458.5 623.5,459C 624.66,480.427 624.826,501.927 624,523.5C 496.236,524.666 368.403,524.832 240.5,524C 239.172,502.167 239.172,480.333 240.5,458.5 Z"/></g>
<g><path style="opacity:1" fill="#303030" d="M 433.5,483.5 C 435.117,484.589 435.95,486.256 436,488.5C 441.529,487.361 443.862,489.694 443,495.5C 442.692,496.308 442.192,496.975 441.5,497.5C 439.07,498.25 436.736,498.583 434.5,498.5C 433.506,493.544 433.173,488.544 433.5,483.5 Z"/></g>
<g><path style="opacity:1" fill="#3d3e3e" d="M 444.5,483.5 C 445.809,485.571 446.475,488.071 446.5,491C 446.167,493.5 445.833,496 445.5,498.5C 444.506,493.544 444.173,488.544 444.5,483.5 Z"/></g>
<g><path style="opacity:1" fill="#232424" d="M 466.5,497.5 C 464.511,498.887 462.678,498.553 461,496.5C 458.865,489.82 461.032,487.154 467.5,488.5C 468.281,487.271 468.781,485.938 469,484.5C 469.667,489.167 469.667,493.833 469,498.5C 468.329,497.748 467.496,497.414 466.5,497.5 Z"/></g>
<g><path style="opacity:1" fill="#373737" d="M 408.5,487.5 C 409.787,488.871 410.453,490.705 410.5,493C 410.167,494.833 409.833,496.667 409.5,498.5C 408.511,494.893 408.177,491.226 408.5,487.5 Z"/></g>
<g><path style="opacity:1" fill="#222222" d="M 395.5,484.5 C 405.745,483.57 408.745,487.736 404.5,497C 401.607,498.149 398.607,498.649 395.5,498.5C 395.5,493.833 395.5,489.167 395.5,484.5 Z"/></g>
<g><path style="opacity:1" fill="#707070" d="M 396.5,485.5 C 404.204,484.9 406.538,488.234 403.5,495.5C 401.257,496.474 398.924,496.808 396.5,496.5C 396.5,492.833 396.5,489.167 396.5,485.5 Z"/></g>
<g><path style="opacity:1" fill="#707171" d="M 436.5,489.5 C 441.068,489.083 442.568,491.083 441,495.5C 438.147,498.167 436.313,497.5 435.5,493.5C 435.623,492.075 435.957,490.742 436.5,489.5 Z"/></g>
<g><path style="opacity:1" fill="#6e6f6f" d="M 466.5,497.5 C 461.738,496.908 460.404,494.408 462.5,490C 464.134,489.506 465.801,489.34 467.5,489.5C 467.721,492.279 467.388,494.946 466.5,497.5 Z"/></g>
<g><path style="opacity:1" fill="#222222" d="M 424.5,487.5 C 427.044,487.104 429.211,487.771 431,489.5C 431.821,492.554 431.655,495.554 430.5,498.5C 428.071,498.579 425.571,498.245 423,497.5C 422.333,496.167 422.333,494.833 423,493.5C 425.501,493.05 427.667,492.05 429.5,490.5C 427.764,487.895 425.931,487.895 424,490.5C 423.53,489.423 423.697,488.423 424.5,487.5 Z"/></g>
<g><path style="opacity:1" fill="#1b1b1b" d="M 455.5,488.5 C 458.084,489.048 459.084,490.715 458.5,493.5C 455.753,493.187 453.086,493.52 450.5,494.5C 452.384,498.017 454.717,498.351 457.5,495.5C 458.604,496.631 458.271,497.465 456.5,498C 449.999,498.812 447.832,495.979 450,489.5C 451.678,487.447 453.511,487.113 455.5,488.5 Z"/></g>
<g><path style="opacity:1" fill="#646565" d="M 455.5,488.5 C 456.234,489.708 456.567,491.041 456.5,492.5C 454.396,492.799 452.396,492.466 450.5,491.5C 451.421,489.244 453.088,488.244 455.5,488.5 Z"/></g>
<g><path style="opacity:1" fill="#6b6c6c" d="M 424.5,493.5 C 426.167,493.5 427.833,493.5 429.5,493.5C 429.254,496.47 427.588,497.803 424.5,497.5C 424.5,496.167 424.5,494.833 424.5,493.5 Z"/></g>
<g><path style="opacity:1" fill="#232424" d="M 414.5,487.5 C 416.827,487.247 418.827,487.914 420.5,489.5C 418.576,489.567 416.576,489.9 414.5,490.5C 416.796,491.819 418.796,493.486 420.5,495.5C 420.288,497.888 418.955,498.888 416.5,498.5C 413.524,498.87 412.524,497.87 413.5,495.5C 414.85,496.95 416.516,497.617 418.5,497.5C 418.649,496.448 418.483,495.448 418,494.5C 412.857,493.744 411.69,491.411 414.5,487.5 Z"/></g>
</svg>
